<mxfile host="Electron" modified="2023-05-07T12:45:01.869Z" agent="Mozilla/5.0 (Windows NT 10.0; Win64; x64) AppleWebKit/537.36 (KHTML, like Gecko) draw.io/21.2.1 Chrome/112.0.5615.87 Electron/24.1.2 Safari/537.36" etag="23-Ajf4WnQybBkFP-EPq" version="21.2.1" type="device">
  <diagram name="Seite-1" id="ZBjKK1gZMGbb-QI9ZcQI">
    <mxGraphModel dx="1419" dy="819" grid="1" gridSize="10" guides="1" tooltips="1" connect="1" arrows="1" fold="1" page="1" pageScale="1" pageWidth="827" pageHeight="1169" math="0" shadow="0">
      <root>
        <mxCell id="0" />
        <mxCell id="1" parent="0" />
        <mxCell id="bxbD1uKVEHf06to05rYI-1" value="Beastopia&amp;nbsp;- Login" style="strokeWidth=1;shadow=0;dashed=0;align=center;html=1;shape=mxgraph.mockup.containers.window;align=left;verticalAlign=top;spacingLeft=8;strokeColor2=#008cff;strokeColor3=#c4c4c4;fontColor=#666666;mainText=;fontSize=17;labelBackgroundColor=none;whiteSpace=wrap;fillColor=#2c3333;" parent="1" vertex="1">
          <mxGeometry x="84" y="43" width="660" height="500" as="geometry" />
        </mxCell>
        <mxCell id="bxbD1uKVEHf06to05rYI-2" value="Login" style="strokeWidth=1;shadow=1;dashed=0;align=center;html=1;shape=mxgraph.mockup.buttons.button;strokeColor=#162326;mainText=;buttonStyle=round;fontSize=17;fontStyle=1;fillColor=#395B64;whiteSpace=wrap;fontFamily=Happy Monkey;fontSource=https%3A%2F%2Ffonts.googleapis.com%2Fcss%3Ffamily%3DHappy%2BMonkey;fontColor=#C7C7C7;labelBackgroundColor=none;" parent="1" vertex="1">
          <mxGeometry x="269" y="364" width="150" height="50" as="geometry" />
        </mxCell>
        <mxCell id="bxbD1uKVEHf06to05rYI-3" value="Don&#39;t have an account yet?" style="text;html=1;strokeColor=none;fillColor=none;align=center;verticalAlign=middle;whiteSpace=wrap;rounded=0;shadow=0;glass=0;fontFamily=Happy Monkey;fontSource=https%3A%2F%2Ffonts.googleapis.com%2Fcss%3Ffamily%3DHappy%2BMonkey;fontStyle=3;fontColor=#C7C7C7;" parent="1" vertex="1">
          <mxGeometry x="439" y="363" width="180" height="30" as="geometry" />
        </mxCell>
        <mxCell id="bxbD1uKVEHf06to05rYI-4" value="&lt;font style=&quot;font-size: 12px;&quot;&gt;Sign up!&lt;/font&gt;" style="shape=rectangle;strokeColor=none;fillColor=none;linkText=;fontSize=17;fontColor=#FFFFFF;fontStyle=7;html=1;align=center;rotation=0;shadow=0;glass=0;rounded=0;fontFamily=Happy Monkey;fontSource=https%3A%2F%2Ffonts.googleapis.com%2Fcss%3Ffamily%3DHappy%2BMonkey;" parent="1" vertex="1">
          <mxGeometry x="482" y="383" width="90" height="30" as="geometry" />
        </mxCell>
        <mxCell id="bxbD1uKVEHf06to05rYI-5" value="&lt;b&gt;Username&lt;/b&gt;" style="text;html=1;strokeColor=none;fillColor=none;align=left;verticalAlign=middle;whiteSpace=wrap;overflow=hidden;fontFamily=Happy Monkey;fontSource=https%3A%2F%2Ffonts.googleapis.com%2Fcss%3Ffamily%3DHappy%2BMonkey;fontColor=#C7C7C7;" parent="1" vertex="1">
          <mxGeometry x="271" y="169" width="90" height="20" as="geometry" />
        </mxCell>
        <mxCell id="bxbD1uKVEHf06to05rYI-6" value="&lt;b&gt;Password&lt;/b&gt;" style="text;html=1;strokeColor=none;fillColor=none;align=left;verticalAlign=middle;whiteSpace=wrap;overflow=hidden;fontFamily=Happy Monkey;fontSource=https%3A%2F%2Ffonts.googleapis.com%2Fcss%3Ffamily%3DHappy%2BMonkey;fontColor=#C7C7C7;" parent="1" vertex="1">
          <mxGeometry x="271" y="239" width="69" height="20" as="geometry" />
        </mxCell>
        <mxCell id="bxbD1uKVEHf06to05rYI-7" value="" style="shape=image;verticalLabelPosition=bottom;labelBackgroundColor=default;verticalAlign=top;aspect=fixed;imageAspect=0;image=data:image/png,iVBORw0KGgoAAAANSUhEUgAAAawAAACGCAYAAACBiL5IAAAACXBIWXMAAA7EAAAOxAGVKw4bAAAJtGlUWHRYTUw6Y29tLmFkb2JlLnhtcAAAAAAAPD94cGFja2V0IGJlZ2luPSLvu78iIGlkPSJXNU0wTXBDZWhpSHpyZVN6TlRjemtjOWQiPz4gPHg6eG1wbWV0YSB4bWxuczp4PSJhZG9iZTpuczptZXRhLyIgeDp4bXB0az0iQWRvYmUgWE1QIENvcmUgNi4wLWMwMDIgNzkuMTY0NDg4LCAyMDIwLzA3LzEwLTIyOjA2OjUzICAgICAgICAiPiA8cmRmOlJERiB4bWxuczpyZGY9Imh0dHA6Ly93d3cudzMub3JnLzE5OTkvMDIvMjItcmRmLXN5bnRheC1ucyMiPiA8cmRmOkRlc2NyaXB0aW9uIHJkZjphYm91dD0iIiB4bWxuczp4bXA9Imh0dHA6Ly9ucy5hZG9iZS5jb20veGFwLzEuMC8iIHhtbG5zOmRjPSJodHRwOi8vcHVybC5vcmcvZGMvZWxlbWVudHMvMS4xLyIgeG1sbnM6cGhvdG9zaG9wPSJodHRwOi8vbnMuYWRvYmUuY29tL3Bob3Rvc2hvcC8xLjAvIiB4bWxuczp4bXBNTT0iaHR0cDovL25zLmFkb2JlLmNvbS94YXAvMS4wL21tLyIgeG1sbnM6c3RFdnQ9Imh0dHA6Ly9ucy5hZG9iZS5jb20veGFwLzEuMC9zVHlwZS9SZXNvdXJjZUV2ZW50IyIgeG1sbnM6c3RSZWY9Imh0dHA6Ly9ucy5hZG9iZS5jb20veGFwLzEuMC9zVHlwZS9SZXNvdXJjZVJlZiMiIHhtcDpDcmVhdG9yVG9vbD0iQWRvYmUgUGhvdG9zaG9wIDIyLjAgKFdpbmRvd3MpIiB4bXA6Q3JlYXRlRGF0ZT0iMjAyMy0wNC0yMVQxMToyMDo0OCswMjowMCIgeG1wOk1vZGlmeURhdGU9IjIwMjMtMDQtMjFUMTE6Mjg6NDkrMDI6MDAiIHhtcDpNZXRhZGF0YURhdGU9IjIwMjMtMDQtMjFUMTE6Mjg6NDkrMDI6MDAiIGRjOmZvcm1hdD0iaW1hZ2UvcG5nIiBwaG90b3Nob3A6Q29sb3JNb2RlPSIzIiBwaG90b3Nob3A6SUNDUHJvZmlsZT0ic1JHQiBJRUM2MTk2Ni0yLjEiIHhtcE1NOkluc3RhbmNlSUQ9InhtcC5paWQ6ZjAwZmY4MTAtNDJhMS0zNzRkLWJjYTUtZGMzOWM2NjQ2NmMwIiB4bXBNTTpEb2N1bWVudElEPSJhZG9iZTpkb2NpZDpwaG90b3Nob3A6ZDE1ZjQ5NmEtZjRiNi1lNzQwLTgzYzMtZWQxMjNhOTQ5MzM2IiB4bXBNTTpPcmlnaW5hbERvY3VtZW50SUQ9InhtcC5kaWQ6OTk5ZDFkM2EtMmU0Ny01NzQ4LWI4MzItMDY1N2E0OTVhOTE5Ij4gPHhtcE1NOkhpc3Rvcnk+IDxyZGY6U2VxPiA8cmRmOmxpIHN0RXZ0OmFjdGlvbj0iY3JlYXRlZCIgc3RFdnQ6aW5zdGFuY2VJRD0ieG1wLmlpZDo5OTlkMWQzYS0yZTQ3LTU3NDgtYjgzMi0wNjU3YTQ5NWE5MTkiIHN0RXZ0OndoZW49IjIwMjMtMDQtMjFUMTE6MjA6NDgrMDI6MDAiIHN0RXZ0OnNvZnR3YXJlQWdlbnQ9IkFkb2JlIFBob3Rvc2hvcCAyMi4wIChXaW5kb3dzKSIvPiA8cmRmOmxpIHN0RXZ0OmFjdGlvbj0iY29udmVydGVkIiBzdEV2dDpwYXJhbWV0ZXJzPSJmcm9tIGltYWdlL3BuZyB0byBpbWFnZS9qcGVnIi8+IDxyZGY6bGkgc3RFdnQ6YWN0aW9uPSJzYXZlZCIgc3RFdnQ6aW5zdGFuY2VJRD0ieG1wLmlpZDoyYjAyNGQ2ZC04YjdlLWIwNDAtODkyYy00MmRkMDhjODgyMzIiIHN0RXZ0OndoZW49IjIwMjMtMDQtMjFUMTE6MjI6NDArMDI6MDAiIHN0RXZ0OnNvZnR3YXJlQWdlbnQ9IkFkb2JlIFBob3Rvc2hvcCAyMi4wIChXaW5kb3dzKSIgc3RFdnQ6Y2hhbmdlZD0iLyIvPiA8cmRmOmxpIHN0RXZ0OmFjdGlvbj0ic2F2ZWQiIHN0RXZ0Omluc3RhbmNlSUQ9InhtcC5paWQ6YWE5ZTc2M2EtN2QyNi04NjQ0LTliNWYtNzU4ZWE3NTdlMWMzIiBzdEV2dDp3aGVuPSIyMDIzLTA0LTIxVDExOjI4OjQ5KzAyOjAwIiBzdEV2dDpzb2Z0d2FyZUFnZW50PSJBZG9iZSBQaG90b3Nob3AgMjIuMCAoV2luZG93cykiIHN0RXZ0OmNoYW5nZWQ9Ii8iLz4gPHJkZjpsaSBzdEV2dDphY3Rpb249ImNvbnZlcnRlZCIgc3RFdnQ6cGFyYW1ldGVycz0iZnJvbSBpbWFnZS9qcGVnIHRvIGltYWdlL3BuZyIvPiA8cmRmOmxpIHN0RXZ0OmFjdGlvbj0iZGVyaXZlZCIgc3RFdnQ6cGFyYW1ldGVycz0iY29udmVydGVkIGZyb20gaW1hZ2UvanBlZyB0byBpbWFnZS9wbmciLz4gPHJkZjpsaSBzdEV2dDphY3Rpb249InNhdmVkIiBzdEV2dDppbnN0YW5jZUlEPSJ4bXAuaWlkOmYwMGZmODEwLTQyYTEtMzc0ZC1iY2E1LWRjMzljNjY0NjZjMCIgc3RFdnQ6d2hlbj0iMjAyMy0wNC0yMVQxMToyODo0OSswMjowMCIgc3RFdnQ6c29mdHdhcmVBZ2VudD0iQWRvYmUgUGhvdG9zaG9wIDIyLjAgKFdpbmRvd3MpIiBzdEV2dDpjaGFuZ2VkPSIvIi8+IDwvcmRmOlNlcT4gPC94bXBNTTpIaXN0b3J5PiA8eG1wTU06RGVyaXZlZEZyb20gc3RSZWY6aW5zdGFuY2VJRD0ieG1wLmlpZDphYTllNzYzYS03ZDI2LTg2NDQtOWI1Zi03NThlYTc1N2UxYzMiIHN0UmVmOmRvY3VtZW50SUQ9ImFkb2JlOmRvY2lkOnBob3Rvc2hvcDoxNjhlYTlmOC05ZWFlLTI0NGQtYmFjMy1kYmQwNDRjZDBlZjciIHN0UmVmOm9yaWdpbmFsRG9jdW1lbnRJRD0ieG1wLmRpZDo5OTlkMWQzYS0yZTQ3LTU3NDgtYjgzMi0wNjU3YTQ5NWE5MTkiLz4gPC9yZGY6RGVzY3JpcHRpb24+IDwvcmRmOlJERj4gPC94OnhtcG1ldGE+IDw/eHBhY2tldCBlbmQ9InIiPz7O3kZRAABIdElEQVR4nO29S5Acx5km+HlEZGRlVtYTjyoArAJJgKQASQ2yNWCrFxprg9bWsLs2aLMd9oVzWM5h0IdGHxq6UIeRDlIfSB3EPjQuzT00Lou54DIwGxMuA1tbYaZX6GkRLRFokuCr8KrCo1CoysqsjIf/e4iXu4dHVmVlZIFp5h8sUZkRHuG/v/6X/+7OiAgGBgYGBgbfdFjPmwADAwMDA4OtwAgsAwMDA4OhgBFYBgYGBgZDASOwDAwMDAyGAkZgGRgYGBgMBYzAMjAwMDAYChiBZWBgYGAwFDACy8DAwMBgKGAEloGBgYHBUMAILAMDAwODoYARWAYGBgYGQwEjsAwMDAwMhgJGYBkYGBgYDAWMwDIwMDAwGAoYgWVgYGBgMBQwAsvAwMDAYChgBJaBgYGBwVDACCwDAwMDg6GAEVgGBgYGBkMBI7AMDAwMDIYCRmAZGBgYGAwFjMAyMDAwMBgKGIFlYGBgYDAUMALLwMDAwGAoYASWgYGBgcFQwAgsAwMDA4OhgBFYBgYGBgZDASOwDAwMDAyGAkZgGRgYGBgMBYzAMjAwMDAYChiBZWBgYGAwFDACy8DAwMBgKOAM6sV3ni7j1tLiOZ+HU0QAWHTdYvDBAAYGTrxCROBELgNDo1r9/Ft79324b3xiUGSVioXVJ7h+//bf+Zw3HMtqMjAwRh5jDLZlNW3L8ixYPgO8kPgogVBz3KWju144v68x9Vxo/t2Tr44+aj87EfKwQQAAAmNMSkMgcJDLKXQrltOcrU9f+e70SzfLyP/jp18eXvHXjoWcu4wxMMCzGPMYLET9Al7UVwghUYNA4MRdTuQSyGWAV7Ori0cnXroyVhktg6TS8NRbwb2NxcM++VMAwMA8izGfwQJjzGOI65bIDSkY5RS6HOQSCETk2pbVrFru0xdrL94ccxql0PTYe4SH3uLRELxiM2fdYU7ThuWBMY+IuyEFDY6wwYlXCJSNU1j+iDWyeKB6cLlqVUuhpRc0w2d4FNybDylsOMxpWrA8xpjHibsc3CWQCxCIuGsxhgqrLu52DiyPWOX0CSLCg+Cz6Q2+doQBsJjdBIAk3+Q7gYCoX6LCRpb2Oodvuqy25Xw4hVgMbh7t0OoRMMCC07TgNKO+wl0wivNkHouyhc3c5Sob+3zKOti02MBYeFes83to0p1TAdrzDJbHYHkgIKKXu0DE4xmYZ6HSdFh9YZTN3aiy6b7yHVhp/+nuwi/vP3t2mhMdhsAPJd4o80lUHed6SNzdNz5xflB0lYnF5srJZ532UQAnGMu6cVSsrHBZmQlguNoOvJl/0/jeT3eWWoATx+1nD/6iFWycVaq+S7sQ1oOND747/dKP+s2fiPBV88H/2Qo7P8nyITWVRA8Dy6VhjJ1/5jeP/nDm+AeOZfdLVingxPHPqzffWQ/b8wT6mXiPAQAj+TeSsgnpLAID+5HH/anvTbxxrQy6vmp/dXI1XHmdg/8yU0zUOk9cLcJ1xmDB+tFj/9HC0dE/uNSwx8ogZ8tY9BeOPg0enQjg/V1EFwMRIVKwklTJWCNUWOXH6+Gz37xWO361jPyXw3t4Gjw4vUFrf5/lE+UFBmGMxP2VAJtVf9yh1twh94+ubDUfn9pYpyfH27Ty94K+oLJGiE3HwGDD/WnTWrw553z/ksV2dgy06RGW+cfnPKwdAfiZlDBI3TwCY7DJgYORn4Zoz+5h399y3egwMJdg2/dnOdFhIGvfiD8JJZIKR/CC4LgXhtOc8gPqmwhO3AVwAoiLRZA7diLCKGLWcZqTG743u/PUAhuBDy/0phPqdH/TH5Rd9UN/mhPvP//Qg8+DBiW5RRXT/SGimAxpCJ9tBRtzd1tLfdNUFu6276MVbuSEVWRT6ctIyr3I28B/2eFef2qoAJ/8Bgf/ZfL+tB9qaBHBicAp/OU6Xzv8SevjU2W0fy/wyZvyqPN3nDg4RTZ/wg2T8SQWxCf/PY82Zqkk3uHTRiOAN03gaTtFFmg8ONJ8sn4ZUuc9j6/P95JP1WrAQXUZwAeATpWIkPIQcBA4Amz8rE0rxx7zT3vKr18QhXgS/u6Mh2fHgPCMyOc0qQHi4PAAECoY+7zf/AcmsCzGPEiDsSChJL+SDjkcAstilqdrLJn8fINGJv7OI3I9ib9zd5UHqCDt9sDF/iDmphFcyU9SLyDqHyGFja/XF98pgaxSsNh5dDKksCJfJWgHtFpWpe5V7bo/bK2vERCz5hy177V48/DXG1+U46PcIhiYx4T6ywSUcA2J4IJwr0zQL7vfplShIpbUYdigHoX7XufVyy4bvdMlIwAcqnoZovOTVX7vdEheT/n1g8f8xvEOrRwDaJOxJ451CxZGFifYkdv95r8DQRcZk0zHqcKgmNAPiaiivuGbiiJrKg9ZcDMw73kI5VhguZtaNdJDlGm0/eZPHEQiA1VEpJSH0G9Si0x63ZkVb+2Yx/2+6eoXPvex6q8dBdFPUitGYf25+tPUZzIsGFAaByoSfkXtKfRkJJZEwP2/XfTuvbXBN8oia1OobvWEIlUBSEUXS5yD5YwrEv5Pr6VjofABEHG3VxpGrV0YZbt+zYgJVlaxAE7vE8Hn64cehbeO9ZThNhFQG01+/zQhOFtUD6oqBhAcjLxfZ3OXGOtf3AxMYKn++QRELFdQ8WcY9t7gzwuRFSmCIImxtBjqPEy5OvRWIdGjWE+icFA1/uR6v4hcO1tFwaSaMI4JHI83Vvqmq18sbjyCT8F0NvEms/3kb2Il6Gxu6Qors38wTzL0KMqPMZa6COX8KWYKMg0d2pj9rHXzeImEbQFbsJoYAMYGwDHIzeomEYqy4ql9ais0a7DP+fb1ETZ2K7EUE3uKUrs3y0G0yUME59b40g99avWcZ694zG+cClhrnlheIRPpE/kHg32hwsZujbNDy2XQMGCXYASVTWUTiHkxHXLeGBKPIADBK5DSHHcoku9n9/Lia6eQRIFJlq5wN59eYGMlNErqElTcN5JclzlrIW0AEBJv3G0tneybsD7xYGPpZMiDiuxvlXt9dxGkjA8avEKTtSfl2lanVhDx91bDldcfeYsDpy2mwRV6X/rJCfrEmmUAlagIRpFuYv4AIAvGYiu197HisCrG7QOXbTjvgyie80/+dkeH1o48CG6c7jnTHuDRKjb44xNIXIFMUMIArfJDINioL0xbxy6UYV0BA3YJyoEIQkGkkZxw0ChVyEN3eOawZAurmGySGIT8d+dA0UDwlIvS/aK6LyUQhrKorvw8DjQVKHd+iRFEt8487qz8wAufn1vQ5wFW/GevA4giH3WuPuV7pr+I9ZClYqw8l6COzW/NJZxP4/HO7ELny9MhhaXQ1g280LVWcFVTj+XknzNPFdtZpg19zE/vsQ8vVtn4LQDnSRmXXcHoTJs/fX2dP95u1pviUfjbd3zWmpf6jiK0cmTBuVBlkzeqrLwlPAMTWESCvlPQtsQJ4KLWjXjtzXDAZtZ69xR6s1kNftgpRJ0Lbk6rzgU8KPfZ9rRGFVyXb1Fgh9wthMuy4PK5P3WntbijAQEi7rcX4fNAHpGbCK1iFLlZtg+KIlmFOlNMf60nQEopUvWzdrg+//XG56VFMRYhWctTdJe07uUy6060sNQ8hNpM5iwTS6MPGixmY9o+eKGC2lLyLgIkF7F+/ozgs9bcUvj7d/gAlImV8HZjg54eA/F3UiISQhKhxZAGniQkVjB2a5f1h5fKpGVgAosTuVqemETVAHnfM1ESKj4UYGA55q66/3TIFhzuNCjW3jMzHoBm8QTyi4lLCbrIL1IWaYvSSAZ3ei2fOroY8PDcndbiW30Tt03cbd9/K1rIqtG8cy5XAhMUuYT1keQCJCUwZfsgonSMEQCemw/RPZO3CMVfPnl/+8i/f3o9bJZBYiE4cVd2twusUDK0BaFbqktwM6smYtDSMz3N0eox7byIEWviIwDn0/6BxMOhKjRcHLtnOrR65HH4Salh7iF5WKEvznB0zkmDMvWMQZjjSOO8YcE9P2G99oHTwyLqrWCQFlY66LQ8PBm4yQiJP5w/n5Dv7YCJ83SilpV8T8slC4jn5fGM6XLVa7pRpmqOvO+hKFSFOu50FomSRl9nBDBgzW8d2Qg7fdPXK5rBOprB+mEQvStQJEPQRgkAZ3L4eE7IoRxrNnlPZGHJlamlUSVZtYaFp9rhxuzn7U9OlEJkAbhkYVH+azzfmQZ3CeOsDBCR29UNHldpZm/lhel2scd55bKD2pKk/MbWS27xtzBZHpL37jN+9y2f2v0TEeNR+M8nPHp2LO+SJ0Fokar0Xqpg/Na49VLp8faDs7A4uSCkrsG87hOvXFd2O6BS9aQdQLcJci0jfn5WZNFY2myMEVFJ84qqFBJ+qlq0hroilxUn7j5oP97xOl3ceNQIuJ/bC0jvttnKG1PFprSyFAm/XE0XBRAImkMmZPl7a+Gzow86XZYO9YmcC1P7SxEWA8g/s/I06xT1T/a9LKdh7cG4PfMrAB+KQiujQFyTJVPt0/qhpeCfT/VLAwD4tI4WXzxFCN/R6ZmpsFIUGwsji5PWtwayW9EABRZ3WayCdJvMlzFUogpcWVMEJGWF0LJaofXNCiwhdG+fkmjl1I25KBapxp0mkxLrtkTweXDuQftxKYO0Fyy2H54KQdpgC92ckOrKElkQCeOkXAuLchaWSoVEtCatrvk9vjF7t/P1Wx4vf9Fq5gkQ64ck4SmlR5KyvCUxBMWrkGNNJH3EQO8yaNhjv3q9yhqfJ308HZ/U3dfBEZxd549PNHn/u8AsBf/0tofmYZ2iqBVeUftcqrLJGw3rhb7z12FwLkGxIZN5K/1kBNR1NqUuQxkoNtHupKkJ0VJ4PjNYce7FdySmoGq2/VMcubqZq3UvFNCjva4+D+CZt/r6Ti4ibgVtNMPm4YiexEDMWwVaoZVTZgpMxxIQzfFkbqREIIr1p81O5kZSOWLh8LM2Xz/81canh8ujVs4hq53YomDRhxiPr6k0ljk3TBWJNSfyQlI0igRo/zRUrQYm7AOXGOzzkjLMJKq0AtJHa/5hcPNMP/mvhF+6G/TkOBjejja0jSCXWrVvCQ7qC3usf/VhP3l3w4B3uoj36wUAEFjO2soaAtmVoZnDIkIlNYljyyC3L2baotICqB2nFUAqjPKCoLtGXZYxSML/0Te9FVVEl8A1cs93Qn9qYf3BjkULPthYagTEBXegysAEdlIktUjv/qYyt+4SmbjS/fK1362h88pMQP57y/6jk0/9AYRTq3Oteoqg7zclkpH+r9aWXlSVqWvvsl++XWE1ye9KMZ/J9yhJCXnHo+ahp+EX2+pHIXl4yj8556N9Th6vyf86hRZgzLpYY3uuuWxwGyUPUGDFc1QKEy/UmrfsNvzmQBtYKwZfyInxTXJ55rcKKvwRowzaiy03Sm9T9oGuX+ifDyg8t7D+4O0SiNwS7rcXT4cU/ERHi3hFp5SJkLf3GgCUTUJkFNdr8SX5Ypu35r5of3q6/HBqTV/JuoU2VZl+C60w1Lgku9dpf3BZHbvtw+ctVD7IUVbopYloDNB+90n4+dnt7DP4iP/uRAdrR5JAD/G9+vJGHwejC7utN0oNY1cxOIElucDSb7CQ7FxDyOIhhY4wTEKrkNYs3F3q4ilDfk5bM4Eg7suZuYdU5MP1y6GYZfkK7keKrW9NUonW+Fv0ITU5oRW059rB4Pe7W/XXsB605iMjaetsUnK5xopckQu2LKiRqZHelCgFWR/I0xh3U0mByOvYBPpJi68dLXdtFssi0HRCYgdYBCXnlOVvSGASeeW7+nfbLzdr1sQtMFzQUdlN0fCoeehh+HFP22l1aBVr4f3THME7BUNNKWWUyIJ9scHmLjqs3kt2PeM5nTgc1wLPaiPZioT4DvTG0rBVNh53fSYU9jmAKKFFZ6eQ0P9lC2cn5hRzbFszFnPCIWXCEb1BGDTutR4O3C24tPFoOuCBxh1YZEnJA5yUQqjPlLr5ba7xdPOUeda81Z0jCASfvPceevfeapW0Nis+2DOXU3c6ykb2xtze66niGc8psaz+SnXnAmDMwi770IcW3GWddae1OOOF/hze2TX+4H/tZZ/BxeB/nPFZPDcruMbU4Ri9P5pJ5EC8BdN3b/RYvJ4x+K2ZtoBvjqOsd/TixhSTPo8yq7wrkk0RUUzxHTGwZI4b0q4lfWLz6tKMwC0+ElJ47n5raaB7qgHA4sajUyGFP8msD4X9a93bypDXCOPBIcm7KBy66DGd9k7a623enr3dvlXivo6Wp6+SzGLU1HGJc39df2prkUDx2sxy23LKnkeD7bkK6KwstTlkRSRAe+5B+NGWxsST8F9m27R8nIjShfiC7a18MthwL0xar/1iJw6SHOjCYXGJlehZSDT9NC1Pfu+MNl8WiLibuTeL0hAgzeJBa2bvBLbOE6NtN0nc7LOshlGIyDMezTERWq8Hae+tBa0j68Hgdq5eD1pY96ND+khpVhW9yqBs55FtEqd7ZwGTEWxC2VKVnqS0H2RPpcRK7woR/mwtXHn9fmehNMrzWSVjSbxXHO7eL0QlTq3FLLBKFOAMarBIWdhtH77soLZYHAOQ1YU4HcHhn2nzJydWwq+6vt+jNSyHn/1ViM6Z6H2ZxyA63ysqfeqJSbwwhMs1tufqlP1qKbuxb4adcQl2Y9BxH6R09A+PxGKId7qIhVbSyOp8jLi+JlbIn1skJBFctYZToZvTnnmprdEt8EaOFCXknEIk3s0/n7gmvNCf/qp5bwCh1hHutR5MBxS5A1naX2XmLSJfVJnZ5u6Spuz9gIAtjSlBaFG8AiljUaS3zYhLBdzg7Zm7nS/fKXNtljDlJxOac2GWliUApPOLSgSz5AqTkYTeq0cOlYMxey+m7PmLjFkXEjoSl6QqThljsSs4OsrJo9b84/DTc5yCwvc/DH932kNTGjckCmJReLOsLhzUF/ba39NafoPAANdhyQOSxVI5HeKSMkfCn+dhe5QAySDQlIHFew+CSt2NezsQozcBjbEvRunF2kapgqvAWlOFVuEUttYiiBBQePbu+tJA9hYkojg6MPxJ8lvHKXVCKzdvBSq4Vx7zja2rbS5SV60WUgSHeCvtPe+2+fr8VxufHN1GhkruiaWy9c5XbsgDUxQHvZWadUaWb/iSsds5fKOC+kLCR6N8NSvDpKAmAKC3PVo/9DD8+Jjuvav8Ltb5w5NgKBg3uoYngLHLdWvmyiDD2FUMPEowr6XEWkD0Q1Cc9dJ8qEAAeBb1Fn2y75kb6/kJZTUiLLumMKfc6Ou/TZJ8uoapqy5DcThS3lRXhioAoMP9qXW/fLfgsreCdrgxn+TEgCxMbAtt2i3JTs1vSvXbhWyHObCZrVUctC64+EUB+T977C2dXAlK8BAxWVjt7LDJvCf5HUgIiU3fVbEqGS4bxR7n1b+x4QrbHhXlTZKrJ8TG2dXw7lvr/GEu5ZPwk7M+WvOZF0jsGHJ/gdD2kXX1h5f7KlSPGOCJwxoImrEkuIYVjIntl874iOHK8lxMnuHuLCjTFJIrUkCFElwxQFq7zjv0djkLLY6LF/Kwcbe1ONs3kQoetJcO+8LegTlGpVimMjNLhLWQHPnHS4XQ3RKmmz9pWE4PAizYmHZ2o2GNw2EOdLaLVumI/2xQe+7L9r+cJso7zrZOuz5wRb+MQCxLSZWY85unFGiT62JvB4Hd9qHlGpu8QaCLelEp0yGmCNCefRJ+KllRK+FX6PC1QyB6S2Bk0bekLyu7a0Sy0L40Zb36Nw4bKbV8m2FwAotZnlh3yR578oBVL4gTfEOAZNBLnZunrRrdZmnaNHSfns8clrSztYBcm0g3k2fLAQGuaGh2n0SOvluwsnQy/wdLFYPswYDCs/dbD0uNFuREeNh5fDIEf1cKONCRTwRGDDZsRTPPJYRq2fbF5LVZKAxMNeVYXqjazP7xuDOxa1/1QNVl1T9Pacu9moQXZa8g8HfXw7WjC53tr80Sw8Pz+eRsviTj8iAej7RFWRTzs4GObcYs7HVe+9BGtdCEJeVL0sIheWc26OnxVX4PABCSjxX+1TsBWvPyg0j7RmKGJ6HycZ1crlqTN3bb375dauG2gJ2xsDZr8J1RTgaGvMa6SWG6WRc7BUV7EH/upJsjylvyt0Osm6pVwcvjBzDhNlLKUks14VGC0Ersm1bQnmuW6BZ85j/DRtgRrLbu9VOzR/BCbT8qlhOn1td1co+2cFZVr8jmsAoTKDRkdFatkeW5kYPeXnf2SoW5P87S5AWgbteUDm2896Cz8HYzXO2D9kxYpeOrW1RmiWHtWW2QEkWlc0Irzw7Ydzlu78ek9cIlAruYUalaVikxKaUEoEPr84+Cm+dWwzt4Ev7L0Q5fOQZkYexiwaRSCOPTxsjiHuvYzwdVvm7YgShBgRERYitKZI5q0iGaw2JqiK2qcWeDTbr8vBYOg/KrIDextuJ/JTEClreUClNGH4ux9ycqY2Mztek3K5Zznin30/SxVZsIsw73pj9f+/pYOXQD91qLh30eTKVe3fS/vOfAgoVJd/KHDWd0zIb94+S63oGTBY6X3S2ksOxc30zJzz1FnLsOq4AxCy/XXlkYtUYXALxfnJOmMQlo8/bMF+1b29pFnyi/87r8O5tvKYh96QsEcgnZIgtdGbeong4Ee50jV0cwfktU1PR2p6DkMYDA327Rk+MPgt++t8w//w8+1s8VZiIJrbQOrtTY7msNa/8ASrU5BrkOS9GaM+auzlPvpDZfLtQum2w9pElDVPqg6hVJdF6uW3extjQP9IHE/snqRLqbMJ80bfTNsezmnpHp6y5zlrM3RfdZrAykntf4b0j87L31pT8NeP973AU8wGL74SlO4bl0MzHNKc2Ji9Nh9k93uVPXHMtpCsWW6Ia0O8IAmV5uiyvhezI3ofRXAq9QWvcVvFR/9eIIU45tV6CztDgFP1kNnx190OParNiN6ib5pVFLUKwXjaeizHokEDijLABQMzCIkpRZ39YFvZeNqtXAbufQeQsVaWd0ee6U5FUXMf1EwdsdrL7rUfOcSLf4loxvyXXqWKO39zl/tGNh7CoGKLB08zQsrgDB7oyvD6/Qgqhyo6vQyl3fYRBALGEEuvtdBn+JK7qz/fvzwlLMO7lqMwtT1XFMuGO3RDlR6LiM3+dzf+qp96xveh93lrERbswkNDEhD5na6JpructjTsOzxZX/okKAjLmrI6H0TaApv/NC8fv11/e4M9jt7vmvFlk/T1IVsWT13R3emrvT+eKdDu91j0cqIgdpFFvufvEz20JRl5fyl2cAd5KNTdsvLlfZ6B0Al4B8v0kok63E/BiXhZZegBEARs6lcTZ3qexj73vBwI8XyepQGO5C3WUu1uETWkRZAIG2t/bGFwaO9Oi3RNPS1bjsE4TUfCUh1QFFV6nIBAQaOCfXYgyNSh2z9V1XHMs5rxOseXcXIaCwsbB+v++j3O+3l477FOQCCHSM34L1/pQ7+ZsJdxwWs8ApdFP2nrMok0/MNlIhNoiJe5lhFS03ycohc+tD9W/dqNujd8R3FXZvoW8R4Vybrx/6auPTntZmqYaUZppMb/WUpFeJLlqKuLWmxCR9y4uDwcJmLvY6R37uJPsMsqwvZe1c8DDlvxJlrZq5k7P3Va2JGzP2G1dLL0gPGOCJw6EbrUGKmaNUc3F3iHt0yusJID7YKJvSodPyxL+SovKcBTKRVjXuOtBShlo+dC5KdcsbArks7qZ7RqaXHctupvdVUpVLHHTmYevJD31evMJ/MwQ8xKONRz8korNaDVWxtCqWs76/NnvdtVzYsBAJoi5EaiBaYOWiO/2iCsOYzBqq1gjmai9eqMD9afHb9AjI/8my//DkU//RlqiMdmqA1p0pySdxrW7pLvdkHVaiTBQrRoMQmFvFtP0ixqx9lwF2Kck/40CJYqGGZORBAFjidgWBU7SfR+oaRv3DXda33reYM6iibAmDdAnGYNn/kvQnSYXZbF+2byJYsqt2UiQufBfcnOL/Or/7ziKb4E8XNyv385yhdBLiKQldg5NcPURwrMi1Nlkdx5Q7cZ2Ai8k97TyYUNc+BaOPNp5sm9Rl7yl8HozKkduK1BdIqDm1hZmRvQAAi1kgoJKQKj+QdZbkJI2yIXpxsz0tFYIZAUxYSkIAY0x7dPPcyEveuDP5ESN8kAS5kCqQAY2gIWzw9UNfbnzyVtjDuVmUSon0CpQLEYNO/cQlK7uS6ZGN4pzunaQBx/MIGptxjl6usoYQYi5aSUyqtXTY5UiUGzFRGhgDLFQujbCpG5P2y891hx5gB/cSzL4L6pEAFrf3oENCy4aWWlUmUf72c4GWM1ImQHLCC8JALYtqUY/XWEmAdFwYIWL8CV5ozFyyYTfFZxNLXjcOvdCb/rp5b9trsu62Hhz3ucYdKH2Pflmw3t83MnMlsRzVPQHlqs/iHQfd5ZMFw8pVpKpUD7rJofprl2v26B1iUb1b8bskV5TmhSGF55rB6tGvNz6d31pOlsAc9ZZhbvFy6XJCUympY4jn8x8UGZugZk1i3Dpw2YJzMVOP9XZVRDsp9adr/Cz6soLR23vs757XJNpxDHDhMJMbNFcncscetvkrEdJsUE44xXuei33nORlZ+YGUJ4hQdJRICQQLVhWBMkGziYAX51P21/fCtR39okndHBHozJONleOdsHfl0OcBHm08/iEnfha8u5uOiFCxKutz9QOLKd3MUvp193mQQaKQdnGIboGUyco0ZqsvXKow96cJ8wMQM3KlfOn4jq55tPGzJe/uW+vhWi+Ud197lbARBqSbUQ8KaVl5NnISxh/T+LycRLvtV65V2dgt+SopbaJREJP2kYRYls6Ge7Fh7bsyau0dGO29YOAWVqHQ0s1BDJqYktF9V+2sNJJngwAa8Gr4IkQWCPOKNWpReaD0G7B1DbwbkqjAYqeJXusXrQPXrmD3yNQ1Ai4Wy33ZTRVS2NiOW/DRxmN43J/K5tXk/qzmP2rXb9ed7MRVFllPbpqyoLsk9ZHsOA+wwg2Ce4Nc04VrlhRLgUHd+FXGi7VXFupWfQGg84lFTPGT2lEtXNwIW3Oftz7uujYrZppuUoR83xOsOcU9W2Ysq+wFSBg7Ty9J7f+cmdeINY4p68ULIOuSjqBioZV36Yqh8Yw5zUnr5asDIXobGPjmt8pX/QWtU/ibj2xyPN10SU0QYRN/8U6CGIQtb3J3ld9irFBJNFNWW10TSd/ltHONfZcr0pqsLm8igs+Dxp31Bz27Be+1Hpz0Qm9a7p15jk8AbGa/P1PbKw3s4l3pVRmhum/KHAN6sa7zDCd/I4OhmAaHOXix9uqFqlW/E1nKyVwoxct+NO6o+GuI8NxauPL6g87XW6KaKJmL0zHcRCAnEafkls0/SGoT5d1i7BjKUer6QdVqLACigpwXWgTKooWVe7oiEoUN9rwOptdgxyjRusxUi+u5ByT0hsRSEs3ovFtE89xOENcNois2r15JP9JIoxJGY7r+ahNBmdSkNJ8tYF99D6p2dVl3VpGug3HiZ552Vl/vxS3ocx9POk/fBHAmT2Ge/orlrB8cnVsUr1qwZOI1LkudxltWD4ktauG9Sk7SeCNBcOrTi5ip7sced+a/2sx5X3Q8FQ3v9AIBG7w1d7fzxZmAa2M78o8olm3uhQOAuiZJq7AJsiz5Ovglw8VYDR+ciizTLIim21yWKvyL+uMaf7DFecfBY4B7Ceb9yZLQUixtIdHzV1W2CMF1ndOau87fPbfyMbldckJLURmRRHeWaGHF+WmFVk526vN0LBsz9V1XGNhF6XlJsMrPeqE3tdC8v+XNWB9uPIHH/SnRPaoUQmzH8xOViY9GbHnn6ihYRAmqkH7wNKqx9AXDWigDj+W7Zkbj5pbKofqR63Vr9I5kYWjaUGzHuKxnW0Hz0Bcbt4rXZm27Kkqsw5wlrTAq9ZiAFDvvJVoPn2CNL57iCE8n5Ekg+UNE6QEpYqJ0TjC+HKDz9gr//C9Ceu4BggAGHHQhIamoAomftPlwrcOKyqAuMkwaOy+00tI/lzLGzMJVLkZ/dAwzbaZyGWnSNRLXhZqn2HOI4Opcay+PvXCtYjnL6kLJ6Jm8NuTz4Ny91uLprQqFe63Fk37oT0veKGgELREc5jTn6gdy5wJJ5VCeSSIFNDs8qan7QKFE2sKTmzPdqjWCF0ZevFC1qj+PcyvMJ2mJJI1P3rtPvMVTz4KiuUVhJiXdHikT7Kp1OIigLZ39JoUxSCREVy22tborGw/DW29t8LXDusBF2XJWkUxlaCwHihyIHq0dfhT+/vgg6O4VgxRYnnaGN/3JoIrzTNEfjnksSo/KyHftpINIzDOVZDtFYR7ZLgR6C7DoOIzSgi6SPIS6IOW+mD0DPF1vmKpOoO6M3Emey6sOas4cq17zSCvcfIugTuhheWP5TYDOiPSlb1MuOLDXZ2v5KCpp8a22Xkn4P0mmk+L9QGfNyrlK9d9jQ8+NvNwcsyduWGBp2HPiwpNflX9vO2zNfdn+F80pt5Svk+TFuetZy0P51h8yxY4DggkpUlmAHeZfq+Ei1sKlUwSen6dV2a/G86PjXuLOHgE6b62EX5zxqfxDUXvFAAWW8EN1MaRMnilpYkE3JGCAJw4thqhCLUDSnNUNO5+XvFKjv7T8RFjtnt5KI936p0DKUhJaeuuuyBpljGFffe+vbLALaVpBKOjcjiEFjbvrDzY92PHhxmN43JtKyJAISmlPv56fqk59VLEqBW/Lu8Sy9+0cCqMDE2Ux/j9awN89SlAEYwwv1V67VLVqdzbv2bKyxBGeawbPjt7b+GJzj0Ous+aFfblgXdeBiXeKfu0EiAiL/sdnO7Q+n9DJYx6T21uQCLBYZK2mAikb7/HTkLTIGD615x8E//j2DhSpK3ZgpwvhAin3VeY9JHNXEki2opJ/SbRU4UPPCRR3xmyHC8UNoF5C4aXt5a+4JLdy3EiRG29+bN+Nil1ZThmKhseKjwY8PHt/fWnTaMH7rcVTPg+m+Rb6owO7ua82oz0mXA0KQcGvLvywb6iWSurUKDHDaXcPZtwDlx1WeT8XmZbkF1tDwn6JAIAOtX523/v6HY93hKfy4pKQhBLk606ddykDklqnDpFU4Y4vSb+Zt5MuwYfBrfl1/vgEQKdEKgqrQnSlius1JFVCTB/94Sw4tcbvn14N75RE+fYw2LD2dHCgByZYtHD1GwgCItemJRUm6bCWYmUJno3nNofF4oDyZPBLvDL5wbL05VoE4rvEAZ9phPlhU8xap6oTaDj1z9N9vSRrQXhDaq0Rmt76oaa/Xkihx30sbzx9kxM/k13lklKSaqUEuLb79EB9X0FpecqoGRPaP/2oCps4F1pefScu2GwuUGX6HOL6Igbm9boO7OX6t27WrNE7AD4krfIQ7/7BRFEQ/WuFq0c+b/8+3aSYMQYGSzulkJ0eprya6VeB9YO0pRnA44901ImQSphb27Gx3eFNPA4++6sAnbcTSjIZpBk3LCFXXAspDvq8Cpu8C0QIqT2/FPz2vdIL0gMGeR6WC6R9SWCKSifsItCGCaomK/yQ2f43oJzpOijBysrNaZHywEDUCCEjTURWIk67WQP7R2cuO5bzofoerc5IQEBB407zfmGY7sP2o2jvQACId2spUqwA+nDPyO5fF7kDOWWMW56GEYReTniUHJRDuqPmoc87IQ29Bw5UrAperL1yvspq0bxi7tVcCZiIKSDA4965Ze/RDxaFtVmMxVsziZF4KYE5laQnWreKKOBGb7plvYxpru+Myr0U3DrZptWj3cqfa2Mx4Il09RqNmWzbW0GxBJ3YoNWjK+EWXLgDwgAtrOSTNGGsxRWljf8OVZSgHEKWDUQhOIshsrRy3fo5BJZwIpCmDbayOLg0arUvUqwtkplUN2tjrrFvwWHxDu6bgEDweXD2XmupMFrwzvqD0x73p+OMU5ITC1BEhTnL86MvXCvKj0urcsQy5umShGuJWk3e2tyC0Nom9o/MY7Ky6zc2sz8QGaCeocrX2nztyNftz86uBU/R4W0QkVsUuLET/ZRA8onHcZ9MdiPJRJVavp3RSFt8GSvh3bcI/JR+jhQpH+KCzLXgXK6z3T8fs/b9qILaRfGdun6pcguOzuml4KNfctr+CQj9YLBRggnEoAtRkEluFvXbNx8Vy459S1lZSPgrli49wh2qlrlzCOPTd6W5lUzG5u5l7aRZptAHyiz6mDuKhlv/PHOF6GLmZYbS8ttzbU20YCfsYKXz7HWC6A7UW89EBNd2n067U4W0ZS4itcAMRDulsOisg24NIKpavePl+mtXatboHdly19OQ6fAEAO+0efPQl+1bp5c6d6d93ilYM1dgFZY8nvKWNWU8i4RF7fknd0ThfuB//HaH1g4Dynwbkt3ZBTdlUtcEVNnYzX2VN346V3nzg1Fr71WQfUVdJpB+E1i2+M2j5uGl8Ebf58xtBwPemkmUz0kMHWWmtvD3+cXObR8V21mGOCDjr+pkezJ4E/c359x9HuX1Qj911cpMGOBF1m+MMiaSWWqrKPqKBkr36Iq5xr5LNouPCmfKi4U2SUoQUtC4t76YY4h31h80fO6PFmWeKiBEsJh1frY28yvbstEN+jdE33VlK7NXREwntQ+jD8vqX6BEeIoJ//eOcWcScyMvf1i1aj/Pq6MqcVneBEJA3rmn/qP/fK/zxZMOtX+mulNF+njKZMVdHcpEEjalOpYzojip9/IW7CCwEtzFKl86SaDYukpaS2619NSAeF7GZiMXx6x9VybsAxixJrHLefVDm1WljaQTL7boPFKdhBz+qafh7bMB9XqKdP8Y3BwWyJXPiUgYiTA12rVHf/NRdSrLFmM3iu5nEVH5InK+85u4tH1vngsaoDjc5FUIJFlXANIzqfqG6nZQvSmKJCVO7mbRevvrexcdy2oWJRO7GQHw42hB2dIkPGgtnvZC/12JMEWyJt9cq7r8cuNgYdtHaXVSWRFhmwju0qFY12LUXpE11Cvma4eaY/bkDYuc83nFLBGc2qvwqYP18Bk4hRIpunpKNt0dCDQLgCn3f/RFDUwapO1MRFgMbp3zaf1wJlEE609oQzEy04KNqjV2a7fz2tXkXePWPoywiRsAUrd2uqhfEcXZm6NrAa3PPwh+s+Nh7gPcSzBnT8rXk5skfqWhmsOqVVyPUbxAugDitkeiluaFO+8DbgedGRBOqHyJCjt+dJcBXhkCq2hfu1ztiQYO06aQMOY2MFkdvxHvjq5Fsu4k+bcetOZX/Wzqaz1o4Vln7QjH5gcMEoC6M3Jn3B3vni52CeZpyhMppWHluGDTvRsL8tTlHQvZvsfgy/Ujl2pO/U7y1q2Ach9dPcWWlTrDEP1fGu/otfaFQJKB8q+Hwaez6+HycSI6mebNhE/Bcw7qH+62D58fsbI+y5iFvc7R9x1WX4gMysyFCOi9KkldE/iJVX73rRZ/XGbxNsUgFw5nx1iITFCaW0B2DVG6YXIN1iquMHDESXPhA2GQxZcYgJbXwU7jaXvtzUi7zWvSOT1Y4GI2szyLldRVNPOWWe1JnLMnpjE/uv9ixXI+jLJQ5gjFPhj3MY/7U1+v3U33sru7fn/Wp2BadK/I3VSsD/v8/tqsdu2V9IjQH/SCVLW2KHZdlrN4Xqchxxnl00rWFtCvnTBZmcasO3exao28n9Citq9uqOcuF5ighVuJlQguUqwd2pRF5EDR8waAgDw8Cm//RYCNtxPLKaGKBMpUi8+Ge7luTd3Y7byaO0du0p7HhPXCJUb2VRL1SWHuS8eVCQSf1g/f8//7joa5D3Lz2/xF0XzOc8io7TkfGgvLtR3w2CLMlmdsrskSCA+bK8d2gEQJT9urxxIKZC6q18GTAVG1K4uluQQh8p9uI1wcdptzgQONWc+xLOkkYmkyWZKPBJ8H55Zaj05tBBvohB7ury+d9rl3NtXVdXUSM0+H2c250QPSzuyFyFZox/Tw9JOUTmGBpULm6SID1gmCcoOBXqy/ulBjo3cA68OkdLm2LMwuqw9K6NVKOPVaOQ45Vd/RaR35Fku+D8YpeN//3YkN/kwKY08jKVU7QBg9LqsvzDjfKTwxeNY5dsllYzfTp+LdTtTxqRmPxzZo5fWV8Msd49kDFFhItUSxnZmufcVLVG5E2iDhOhVUbKep8AQZyjijaLL2+L1njzV7qA0Obb+DjdCbzTMMEnppXoQQAePVhnKSaTnQGVvbtbCrtovp6tR1C+yibuiqbw0pwAbfmLnfWnIftJawHrQOpZbYJqjbtTviQY3dwQqthEIKS5IZkdKYVwD1xp6YP6+UMQId5uBg7ZXzI1Zd2h5BCVPQ1I+q15PykZ5GGtFXItuQI+9IOKRSyZ/yds0guNda+BBPw6/fDsh7K7XssrW+ErUC1bDgXh6z918es2cK3121xrDXOfILm6qXU6WlYO5VnekMsXHqYXDjPd1ymUFgoOdhiZ1OqoNsciI3ejioaFO2bxxsy0KjOnIb0GjiXUBEeLK++ua6t3NRNndXH06HnDei/LVEQRchZjF2ZXd9snCtUS+wYkVEf7yIHpHiszUW8OL4Cxcrthu7PfQauZivx/13F5r33r7TvPe2H/qNXCLK912HOefnRg9c2qpSJSpuWxNEZdtYmaWszatImJakNO4bmce0s/vXNpzzcY45Bi/Rk9PqKc8qNEZaHC235b6yFeTqLdE98mpdxucGtMh+0b/5zgaPFgnn9CoprE8WKSPW5EcvVP7wymbv3+McWRizZ64CuJ6+KS1rkgml34CsHjq08vqj8PfFR8WUiIEJLM7JzdpU0FfSa5FEJsGWHbQPeBDY25i4mnyXmjNtcZJ/x2gH3tzvHnzZ9ajwssCJcPPhV/8x5OHJ4lSEZGG3yFQcy2nurk3cLIMOHeOUrKy0qmS33FaH//76XlSYo1lEnAme9C8Bfhjg8cby3y+2Hv7fPgVn5TkWEphAdsm1K8sHx+a35A7U7oinWNsq4xsUZCWhYK6YEhLZ5icr9oBDo0ev1u3IypKNAkUrL7BwiQjS/AoAiVlkLle3vIXDQjYCxVa6BVTe6huUjbUS3MVa+OgkgaTx241fEoAKq1/c7Rz6v2y2NRtgX+V7H1TY2O30QuoOI82fLPMAnZOPg1v/MaRSu40Wgz9xWJLS8aWUj5OUDiBYjPnD4hIEgBcmd1+ywG6IE/pbZDtHP3l4911/B6IFP328MLuy0XwdgKQcyLyBaW/YjHm7ahOl0CGOL93iZZE+4Z72PCwdbMvGntr0VRv2BXQZzEzQRgMK4kPsttZq45WxWyN2dUtp49zQrVds6i0sBRnjEXcRyebpZAJYyV6Out3A/upLFyqs+kGesoJ5rVw/KBawg9Zye/EIAOXbV4vBv5z10DwcUwNlJBW48Ni1ETZxa8Y5srDVfOrWNMasfZdB7LoasCMFzQFI9nRMAlM8NA8vBv+46cbS/WLwYe0xigas2riMsdR1NAzYPzHdtC0754qQSivND0SNzgB0Am/6//3id9KuCmXjSesZ/unBJ38bUHiyaMx1G4xj7uitqlPOnGpxuyocSlSeGXra/frFsReuVFgls7JyJhxl03ZpEnlwKupV+rdiOedfGD1wacvESM8L33S8d0CCK/9OtXSZ8BIDTcoegS/WXl1s2JM3QLiou6/nD3JriLs25KxhII6uLJFyNciCEuFVrGGV3YZL/qfT6+GTEwCdyLeMKlSyO1VWX9hfOfbzXvM7UPnexRFr8iP5ajJuEm1X3KAqAkdw/Cn/8p0OX+01y56wQ+dhQWtpZQI7TSD7/IcANbeKhjuSmdFFPVZ//djXT5fe+d2DLwfi/+0EPv7bwu/fawfefBLFmHm5SCBLFyJMsJl1ZX5iVstgtg2N8EaRBhtNpvckLffWd8U7kBTkCWSujhwpiuBSokIcy27ur89uuX+yaPNc+TgV5PPOPVequMhnpBfIYr7ML/uIDMYYXq6/dmHEri9wys5skinRxmZqoLEMRbdhmSgYz13nBUtCQB089D/9K4+33i5kK8r3aJGwc2XMmr0yYe/vOU+XjWK3/dovHFSvZMNTDqGP5vLksQEAHq0dWfD/n4GGuQ/QwpJVxmwRY8YolbntOB3gh5sv3vwm4YXJ3ZeI6DakNlTjaWQkDe4FwYn/ceeTv/3HO5+UujfXk9Yz/JfP/uFvH7ZWfkhEx+W2yGiUaZLf4TC7OT8xexslQhRAKYPSrmWLjrtgRD1ZWBazMFPfc9Vm9oWC/AFi8XY1EKog6ZeqRZb8pAtjlbFb1R7cgem0i6iUScTkzSoxHqkcWJ5gWyKdMxY/Uc5p3TNGFVbWujsBu919mK7MXLEQtY1+dMjzl7q7smKRzYNpgub6QlY1WTuJNA86Mu6+9/sTLf7s9WjRe46qQoyw8Zvz7pva/r8VzFS+c3vEmvoIwI3EkEjHaVzBmZteqvGjLXr8g0GembUDc1iCzpQql5puGvcJxpjn+YOfvCsTr84cuORY1nraskTRFsmAMvj0nc0Lg5P//ODL9y9//N/fW1p72hctfhjgxoPbx3712f/3n5+sP3uTOB1Pu1RsyWzm0khuN9z67fHqaF/06JEM+1hiKNWTRoZtk/scHNt/Vd7BnSnfFIsuaTMdpbF2WbHc5ouN+W0yAdWm0QguAWUx3SysXRENLHdFGZvMtwa0luiV+neujtpjt3KeLU0EQU6zl9xQxcrgYECpEiV12byLsBT/eZs/w5Ng4e0QXjQvJOxioVqn2bwkhw33ypR98GKF1frKf7/zvR+7rL6Q5J32GW2VZxdDeFP3g3/4e6LBGB3OQN4KwFJ3a882qYq2nil4jojcxZWVxuToaNOxbTiWBduyYFlWcj81feM1TQBkF2Q0RyH0KjU/xmDFE4ZBGMIPAwQ8hAWGxkgNo9WRnsq6pzGBXaMTv364tlwB6GiaaRpplhAG6Xe28zfgB8GJB6tPGv/l1j/8YKo2/ptvzx786/mpmeWqs/n8d8BDPNtYx5fL9098+uTOuQ2/M0vAiVQHKhrXEj0kbeVTsZzLR/a89IstVcC2IVkw0V+xn2wTu2vTcG13eSPsZK9ULRfd++N+Gh12KCeo2u7S3OiBnugQLcN88ZRjCIUEA9lAVS2/OBw12Q1KFIzYdRysvXL+8/bHUxu89a6Um0IjiwNWpGhCHa3StcG6U9W7SRQ7peOnnF1K7nb++e0NvnZYa2kK+WXbVEXpRqyJjw5Ujl3vN/9xez/GwgOXlsPP5gl0LLpKqeGRPww0pfPoBq3494Prpw5Uvr9pOH2vGJjAApRBKjLvWJYk11O5whhWW+3jV27c+G1ksQBEVGEW8yU+Fj1TSa4wBh8sdvPEnZwJa37SLsziSXwGRMZldKgcB7mcU4Uxhsn66I1/+70//ncVu7eqOX7wlb/81cf/+FEoahaCwNxiiPYxPwzxsPn0xPIXz960mOW5TmV5tDqyUKu4d0Ycd9G1nWVO5HqhP+1zf7oTBFNNr3XYC4NpPwymCXQ8LS7LBJBoZekYd5qSMTDg2phbv31o6kBuK5d+wCQuKZOQeucS+mIlg4hpjufoDotZmB/b/59uLn92mINnG3QqAlrl4UjzZ6lrjgGwYF3YPbLr15vtzK5C51bT6G7yMyAQlbzbS5pRoiBl9cmYjo7BroWcqx1qPvTu3eiE7YtJ+wjNAvVEX7HORPdxjmqJkfaHjFUVnYBOktXDkI3xfvE0uItn4eIpjkBY9pIpU+mV1HsV0VhhtcszlW/9oix37n7nexfW+IPTHiU75AjUaAyFhE5CcOwp/+zcDB274vRp6akYmMBS59Z1/Si5Hq1riCrZsiz4QXA4yD2QvSTpHFknTtgdAcyC6v6QGbcowOLnBEG6vL7mNjc2MDWarSPdCuam9mB2fOpXd1cejzKGwxINouBKGzpfIaKADzg/AYTweYB1r5UJ+OxV0Wtz1qP4vqxTKbw6nzb5SYSKXVk+Nvvqj0rbP1BA6vfXCC0g5lW5CfTemdDBsRdufrbyZbPDO3FWksaDlAHochGZAgMcu9Kca7xwtVcarNSvKRe2SGgx9WaZ0EpnUaFjSNdGDsLCU/By/cjF9WD1yDpfE6wTkdZ8nSVg2o48OJpzYf+qcSHdTP/bNu57H7/boSSMPcsov82YtJ309TrbdW2vZr/A7aJqjWHSOnjhYfC7I5nnCPIhHMh0IbFPe9Q8dMf/9bmX3P/lg7LoAQa5cDiUtcTMRU3CRzXnge4dL9MoZIEg/FaCC6LjkUTrRny/8EychhO54TYnU7//0pEfV53KkjSXXjQ/IdClljlfJyxTkBOSY8Gr2cc2B3lTU22W8RsJAK7tqo1ff3FyX/eX9oFukXKy4AIYaFsulonqGEad+ue5PIsyLrwanSy8d2R3zzTImu5mbZylKJP1dpc9BTdL2K19M0xV9mB25OB/cuJzzLrNq6rIC9RE0yuPvmIKNBG1SIYmxYx7+4Qs+Z9Nr/OVY5SGsXcb4FmgTJU1bh9wX39/2xkX4IXKm5drbEp2MSYkKd57zqW6Obwa3nlrjd8rlZ6BBl2oAkJmGhofqBDeXLxQcLPhHL2HSb+zbKJ4CIFhiv2BCDazmtsN6d0zNoE35g6fsy3rhkhyKhAFwZlFS3YXWuI8l1ikHLbI5aTur9AF4NqoW7v9Jy99r+f1G1vPXfxFW2rT7Q7/ubH9lyxmpWH5W3HZqCkswoXdI9PXenUHAjq65UbM1rWoY6QckZXvY0XpYtY3OCNFi1fq3745ao9lSgXFDFiyoAqUC+0YKFHQpuNCVIyBxF9dyJ/6AKcQD/3Pznao+Xb2urxSLWZHACyyrjWsPdfG7dn+CNDAYg72Vr77UwvutcJgoTieILWw4t8h25i56/+3vy+VnjJfJoJy62fiYSEx6EhMS+Y+ZGadReHIw5/BSq2UaKW36s8mIW3GmFk81yUvPsyerTj2umNvv1remDt0/eD03osAbkf9Xbafk36XeTPVCaW8AEtW2svrTrKjsKWntYOGKdFMBIrn70RUbXf5jw5859/XK70FnWwH6aSxxjLOsaltaqwHGrO3HdhNNQw60090TElcmEqo2NXmwbH5bU0eF7BaqG2b5Ju55LaTWxER8QnT0kvFhZ8yI4yGUjmBA5uBMQvzI6984LKR89FQSXgEoOcVgFx3cl1F/b8kYZ+4NESlNueKFH/zyC3Qh3V13//46DpPTnFQR3dB1gBcNrow536vcDf2frHHObJQtSZupopNdjSF0ncSPgUgCsU/3KFnRx8FHx/WvXc7GPhu7YmVxcDAiGXHcHTpV4kvX6wXxO9JO5GYFlAYcu5tQrouDIEA27KbvQZcqPjha6+/PzM+eYVA6ca4hVnqLCjkr0lRkBpLRQydJ550pq3T7FqVy9+dOfzjg1ODcwWqyC0T1WiQ/fh5JqvjGK3U72jnC6UfQqdQ0o7Y7tJMbc+2aWCAp3dhZdci8UHK3gHlo3iM5FH2wuEivFB72Zuq7LnGwKQdRJKpPN240KGsgIfcexkKD0fU1ed2zzLzeAuP/C/+g0/tt9QR3Q0W7GtTzsELNWtyO9luGfudN/7SYbWrhQkYRdLEgiTYOTrHH4W/+1lI5Zz/N8CdLjKzWXYNsmyiNyed84wYiOehuOyySN0HKGZp4jtzCw5Tni4zd0bdthDaGiq2g3/znT/6y5mxqasAbks9L6+YiJa1pgyqFkndbgq38sI9uy7/rljOle/OHv7JH8y+Usomt0XQ7fyQQ06j6KZhbI75sQMXGWXMsOurcszHujhbn/nVdoNPLDApWrV47oVy8wGlgQGp9p/kqu1nW2WR5ePl+tGLNbuRW6BOJNafdAeixaWz0vsFk8OzpJxVOmRvzvZ4x0Lno9Pt8Nnrav+nLh8AqFmTH825m+/G3i+mnJe9cevAZaj8TKRG85UAbNDKsfvBb95GCRicwCLyIAoMxbVHie24qX89c8+IV8Vv2VsL3kFFP7I8xNtluBVcp4I//YPv//mrew/8jWPZNzLZoUqQxCsuu0PTm4K1pQqu/EBNMiHkqkx6V/rk9bpbu/T9+e/+u2Ozr97AgMGifx7U9qDBscoDjX23K5aznPU/RXGBUlXCvYrlLL8wun/ba1psZkeeBlXRUttFYXhlBQlaTFj+K7nXsv6kdvXEVbtTFhYATFZ2Yd/I/EUHzkVZyQRCTuCE4m2XlGjS8sLamZcGH28BWV32bmG1wmdYDZdOhfBPauw4kMok4jQu6pf2VY78tcN25vzEucoff1BhY7e6V4rMeKJf4dFn4Zfv+NTum4bB7nRBLMqCEM8daXoAQeqNRW6L6AoDiecMiM8BYFS86JKENs+Epvj+bEAHvJwtVyq2g//5W2+c/8Hh7/xpza1eBXCbxIyL2r3wujoYpRh2iJ1FZlRieSLx7jD76kxj16/+t1f/+M9e2TVX6nqrIkiWSqppsNQNlys2xcyzDyY0WR3HZHViU2Gsy6FqV5enR6a2nbdjOVtk/Ez4FrnOy4LF7GY6zLspYoIFFk3FDH4THBGvjh67Me5MXyfgctRjhYl8JjIqRXGVhX2pc2+xeiPwpMR5W641+rX323c6fC2e54kLrPGEZLyNAcSu163p6zOVb23t5OsSULUamLZf/tCCcyNyYfPc3HgeUX35aM3d9X99rl8aBuoSBIBkErsrNPNVqgYYWR8xl0v5MuXrqIuFlNVr9mLRoiIQOHGXdxvY28CR2fmFP3vjX//w6Oz8X1ftyjUAN4toEMuh+yFarF2S5azGBBZj1+qVkUtvzn373//vr/1PP50cGdt+wXqExaz8pLR23iq7zpjVNxM6OH7gomM50ia+qmKkWlo2Yxdmanuu2Kz36MAEkYUTM1Elg7x3UGPulAZxp4h8PqSMI8bKPQ9rq3hl9NgHDWc8c0uLrlICiDIGmW1HJKPcNWRqIJdafar3p/e8H/pfuGvho5M+805Fc2VRUIOk2Eo0RPlVWX3hgPsHpYexb4YDleOXa9au3+joipxmYl3w9HtI/tF1Wjy1FvYX5j5AgWV5qUDhxZZTgsRDqGtzUWhp+4TKvAnRXn6K1ZEklSxrkt/LiVxekoUlolGt4U9eOXbh377xr39wZPbgL2pu9apt2TfEESDtyqGTxGkZeh4gNxxmX50YGbvwrw4c/fP/49t/8mdH9760MIiFwd1gMwsWs7wc/QonEDVYxvp3T+0fnV2uWm6BJqpnCq7tLs+PzfV10rLFLNjMLmT+OhnFUI6QTlCxKk1LJ3SVAUfIhstOugNFTLt7MesevOiy6gXxemLd5N3iaYLIKi2RbBvOusOcC8Up8uPThgOHuU97yWfJ/+xcQJ13EqVVMqJ02QBwUL0y5uy5Oun0vht7v7BZBbPOG39ZxeSlnGtbOvBRJtxiDjiF7uPw9+/2k//AdrqYGK3danXq1/wgmOJELrOYJ024K50riiokwIqddtEWQT7FWzAxhnTgS0q6sMyaOIFZsduRKEsoR5bH//EkxN2LvWRgloWq4ywO8jyuyVoDf/LKsQt/5B+58ODZE/fzx/fP3H/2+HS0rRIQ8PB4WkaxDIhohtihhe/pn+jaDce2mxazvLFq/eYLk3svvTi17+qu+ji2s56oLNQqI5ioNm5VmP1hSKGbNoZQxLRNwGAzy6s7I3eqTi8HJuYxWqlj/+js5aXWQy+goCFYp+nGsCwN5Y5OWZ4embq+t9b7YmEVk+7ERwzsxwEFo8n7xTaNlKds67GKVWmOV8Zv9Z1xkn9l+jcBBT8KeNAQ9/WgePulKO+MHtuyvJpdX3CtnZkXUfFq49iNVti83Ayffc6R1pmb8kLGPAZywZgHYaNZhznNujV2u6w5rIY9dbNmjd1isM8TwgaD5UXzU+SCURwMF8/Jxh3YYZXlcXvPr7eax3oYybYKG/nQhtNgzPIs2FF0dbz0Jln6kS6DgeVVrfqdg+7xgYWxb4Zp52Vvjd+/uBraHsfGLIFgMUs6iyzm4l5ynYF5Nqs0tzPHJ4INahsWPwjxtNnMMVVLjB4U9v9j4kCOBYjFGET3nLx/VRa8IXZStb9aLJsDkdIJk9sh5/DjTXAZY5id2P68xXbghwFWN1pYbq1OP1pbOfGo+ezkWmf9sM+Dac7JjfY/jBg5UbS+LVEAko1abctu1iru4mRt7Mbu0Ylf7xmduj5VH8OoW+5eXmVg3WuDQJHwJEJIoSCHGTjxxD2LEbuKWknrwtb9Fnzup/kwZoGIy/tOMoaK5aDmlFdvIYUIeNS3QIjLGzEj27JhwQInDp98OMxBL0eYbAVEhJACWMxO52REzScpPyeOkAKM2N+MPsMpRBZjHK9RS63y6JYYIKK1JPtAQB46vI0Kq8KJj5mXrP90RtxKf/cqMAPy4PE2LGbDZbXUxZj8U61dBoatHnk/aHT4Gny0YaMCm1VgwQGD2gZxQ8V/+6V9YALLwMDAwMCgTOzsJIaBgYGBgcE2YQSWgYGBgcFQwAgsAwMDA4OhgBFYBgYGBgZDASOwDAwMDAyGAkZgGRgYGBgMBYzAMjAwMDAYChiBZWBgYGAwFDACy8DAwMBgKGAEloGBgYHBUMAILAMDAwODoYARWAYGBgYGQwEjsAwMDAwMhgJGYBkYGBgYDAWMwDIwMDAwGAoYgWVgYGBgMBQwAsvAwMDAYChgBJaBgYGBwVDACCwDAwMDg6GAEVgGBgYGBkMBI7AMDAwMDIYCRmAZGBgYGAwFjMAyMDAwMBgKGIFlYGBgYDAUMALLwMDAwGAoYASWgYGBgcFQwAgsAwMDA4OhwP8Pk7APrfvvucsAAAAOZVhJZk1NACoAAAAIAAAAAAAAANJTkwAAAABJRU5ErkJggg==;fixDash=0;imageBackground=none;imageBorder=none;" parent="1" vertex="1">
          <mxGeometry x="119.88999999999999" y="198" width="63.88" height="20" as="geometry" />
        </mxCell>
        <mxCell id="bxbD1uKVEHf06to05rYI-8" value="&lt;b&gt;Language&lt;/b&gt;" style="text;html=1;strokeColor=none;fillColor=none;align=left;verticalAlign=middle;whiteSpace=wrap;overflow=hidden;fontFamily=Happy Monkey;fontSource=https%3A%2F%2Ffonts.googleapis.com%2Fcss%3Ffamily%3DHappy%2BMonkey;fontColor=#C7C7C7;" parent="1" vertex="1">
          <mxGeometry x="269" y="103" width="71" height="20" as="geometry" />
        </mxCell>
        <mxCell id="bxbD1uKVEHf06to05rYI-9" value="English" style="shape=ellipse;fillColor=#e7f6f2;strokeColor=#C9D6D3;html=1;align=left;spacingLeft=4;fontSize=17;labelPosition=right;shadow=1;fixDash=0;editable=1;movable=1;resizable=1;rotatable=1;deletable=1;locked=0;connectable=1;portConstraintRotation=0;container=0;metaEdit=0;autosize=0;fixedWidth=0;snapToPoint=0;treeMoving=0;enumerate=0;comic=0;labelBackgroundColor=none;labelBorderColor=none;fontFamily=Happy Monkey;fontSource=https%3A%2F%2Ffonts.googleapis.com%2Fcss%3Ffamily%3DHappy%2BMonkey;fontColor=#C7C7C7;" parent="1" vertex="1">
          <mxGeometry x="271" y="132.5" width="15" height="15" as="geometry" />
        </mxCell>
        <mxCell id="bxbD1uKVEHf06to05rYI-10" value="Deutsch" style="shape=ellipse;fillColor=#e7f6f2;strokeColor=#C9D6D3;html=1;align=left;spacingLeft=4;fontSize=17;labelPosition=right;shadow=1;fontFamily=Happy Monkey;fontSource=https%3A%2F%2Ffonts.googleapis.com%2Fcss%3Ffamily%3DHappy%2BMonkey;fontColor=#C7C7C7;" parent="1" vertex="1">
          <mxGeometry x="367" y="132.5" width="15" height="15" as="geometry" />
        </mxCell>
        <mxCell id="bxbD1uKVEHf06to05rYI-11" value="Remember me" style="strokeWidth=1;shadow=1;dashed=0;align=center;html=1;shape=mxgraph.mockup.forms.rrect;rSize=0;fillColor=#e7f6f2;strokeColor=#C9D6D3;align=left;spacingLeft=4;fontSize=17;labelPosition=right;fontFamily=Happy Monkey;fontSource=https%3A%2F%2Ffonts.googleapis.com%2Fcss%3Ffamily%3DHappy%2BMonkey;fontColor=#C7C7C7;" parent="1" vertex="1">
          <mxGeometry x="272" y="315" width="15" height="15" as="geometry" />
        </mxCell>
        <mxCell id="bxbD1uKVEHf06to05rYI-12" value="" style="shape=image;verticalLabelPosition=bottom;labelBackgroundColor=default;verticalAlign=top;aspect=fixed;imageAspect=0;image=data:image/png,iVBORw0KGgoAAAANSUhEUgAAAOsAAADRCAYAAAAt60UeAAAt3XpUWHRSYXcgcHJvZmlsZSB0eXBlIGV4aWYAAHjavZxpkmSnkoX/swotAXDG5TCavR308vs7RKqeVFWSaWhrlVSZyoy49wLuZ3CccOd//nPdL7/8EnxtxaXM370Uzz+ppx4H3zT/+We8v4NP7+/3z5lfvwu//7nbX9/4yI+Mr/b531a+Xv/rz8O3C3y+DL7Lv7lQW1+/mL//RU9f12/fXejrRqYninyzvy7Uvy5k8fOL8HWB8RmWL73V3w5hns/Xr/d/poH/nP4qy7+BhK/ffv//qTJ7O3Mfi/FYMM/fZvHzAKb/zNngm8Tf0RovDFb4Plnm7/xeGj4T8rN5+vZP54muHjX99EW/W5Vv3323Wudrztz3q5Xi10vsu0ku377+9Ocu5J+vypv639w5ta/v4u9/vi22zxN9N/v6797d7hszoxipMNXla1C/DvF9x+sIz6RbN8ejFV/5L3OJ+v50/jSiehEK2y8/+bNCD5HluiGFHUa44byvKyweMcXjYuWbGFe098NmNfa4TOuX9CfcWK3btsa6rrfsyeK3Zwnvtt0v9+7WuPMOvDQGLhZ4y9/+4/7uG+5VKoSguTz25oq/Y9Rk8xhaOf3Ny1iRcL8mNb8J/vXP9/9oXY0VzJplpUhnYufnEjOH/yKBvYU2Xpj5+snBUPfXBZgibp15mGCsAKsWLIcCOMVYQ2AiGws0ePRoKU5WIOQcNw8Zk1lhbcgkbs1bangvjTnyY8fPAbOXXcUqa9NtsFgpZeKnpkYMjWw55ZxLrrnlnkexkkoupdQiUBzVanI111JrbbXX0ayllltptbXW2+ixG6CZe+m1t977GNxzcOXBuwcvGGPGaTPN7GaZdbbZ51iEz0orr7LqaquvseO2DX7ssutuu+9xwiGUTjr5lFNPO/2MS6hdczfdfMutt91+x7dV+1rWH/78jVULX6sW30rphfXbqvHTWn+9RBCcZK0ZCxZdCqx41RIQ0FFr5ltIKWrltGa+A3+WIw+ZtWaQBSvGCqYTYr7h17Vz8bOiWrl/tW6upt+tW/ynK+e0dH9z5X5ct5+t2hYNLf9JR2WhJtUb2cfvTxuxDZHdD1/dH/3i7379dxeqqQwGNuKc7qwUGYkBfTNVJmDuYIv/D8Y3WfM3O+Pn69h15JkaE7l9uQDAXiudXRIQ5VYqIV1fdz09n9pD4iVp6avFc1YgCGrokWvUATjMKUywmPvIbQUuX1lDlj+f1QtLjKDJrFK3WWuIqezlBeIK8lUt+UB09XEIkbyXJeLlKFhjHEiDMI/r1liskOYoZfYTSuZbYqIDYGWfMEe7Jczm76kLmD/Vrz5bXaP2s3O5q4ZxyuRCyXi+sm8ZOeTNU64yrTcCZ6W0WrrJLwNizk4nNVKDCYIqbppzbTjlzDPbJtfAtHVuh0SWz735vKY37rPgrrlP83GUPq8eaeeTOrf3O5HnDZYlb8+tpQc3QyROi10CdFxPurBGqwG/+kE4rQ/fZm3jlsj65A3HF97d2gxMxSUnjt083JiF5J6l3RMZ2Fhk496D+eqFL3kTH9zYbiRfju9wZy5n98UFohjXF66Qg0vbyhpkf4ZgiZcWFA4WdjvcibwjR2JOrN8BmGyiDvMkMTdj3Xsxl1YXZCzwrygGRc68THMmWvldYg2vnpN18SttZpIg3ZFMHax23XcfAoEL6zVpNreNi/COw8X6zG3D9jfFDai1RRQHm5fVZyU6E71y5qEJGL6MtO6oBNlt/RzHe1HAPRxr5RRkxS6rs4QnzRCugTjkz7SRJcPh6AtQbaTOyIWAszUvS1oIyAWyhr0ALfCkENfjKKDXBo0rmIKcT3d3IoeR3dwngdo1wgIqldaUP4yjugHmnnD34pEWiMoT3bkAoTV5dgi57zxu9yRQXKxDb8G4l9+7RhYOITGrbSLbE9rXg9c8Xw7VSIBTLdbDwp6Tyb97EO9EldK2kRJ+jwVuNxiCpF03R3KqOvI6+DVrj2GP0dvJhBmyReSxUXKzkRrrtEAWrYWIuqQHr0glEqe+1xkJrFsd4DEqIvz6AdzPnHlkBrstgf2gU9WK7hN53p55jIYirxWI8SB2iTY8V2hzOBiAaR8599vyANqRnvwbE8OEa8S7sZbsrfhVB5qUMYIyta0jm1JZicKcFhc3KbXIR8/KEM0YAUaMx1mH0RZcxOhM/9yVICqJKBxgZxeu3TwZba4dojUXEj+LZ4zK0OsYh7HUzWOe2xR0Z3SFAJCUJ4/op4IigI5EWTVwALAlI47L2Q8gGn4i45O01TYwbtyaw9wz7o0/OmnViuFYE2Vb+81nrpoJAdgVpGBRlzvgAnfg5SS7aQKY/N5iZnnQ0uAT4AQztgIRYF+EDgSPMafMX2ZA4X11v37z17/mvVGFp2yEQGoRImkxotgKeZzgElRDBzaY9kZQXrS7t4EI4VmNNRylAsYXohCmz0o4THQIyoSfkC2udNisAaHkzEGnogqO+J282gR3ZvJyEIQQHCiLfiP26NrTVHNeyI8cYuWc/N6EdRJ3xnGHW2zHckiXNjYLioggWQ9Ik+eIIFHRtJOYIkcC7sCF5+blFqDSBTFATYRjFpmOCCp2MvYE3CIVkzLTw1tFNE2uHx50ALW7x0vET3SQQ3cRzCAC+ScbKskVWoM8Cpk2atmFeCXxGiYplw3niF3FHRsF5KV/6lrRMY9EC5kKijRIKEcmFZIwYmJVTNAdJNiGRuDfqoslICeA2wHqia1460uRDZNANbZYgzzWAvOslwyUnR76BRsIXwIUyIUiG+iFrERswnYXS13QsMwA3s3BzWi2PCPDanmhmccWf4l/UL1xJdEcT21cFg1IMlooLccD4ubbSpTSBrMh4DMFARvsBo53I0uaQNJDF0X0spAqQVwdwN9t+U6yucOYA0OITAgsGDo7noQVQVCawUgNtUz2kAjhMHZeXAGC68EaBsclgMdNQEYYhdyv5xyUdGVoyXN3QGoneKKMjSKAFwYTzV3JbxZsw3Rjr5aLYL6TEvKgSwrr9inttOUgyde6Tyd/mGZWiJXqtSw0LE6MFIEOiEYAPGGc11yAI1ntQfzkQR2i6YB5xUkCeQ0UtJk4aWQBmryuKy6um8wEutth2FwbZcED5sfRmxAeG5nSgR9SJKSBMIwsv4B43AUYEgr3yT4joQ9JGJAkPFKvSeRkc0mD8KfzTsk47LXj130y4bOiD7EF5Dy6abG8sC/8O2BWcgg5dXlgT26jEhFvn5pIRyyGzhwnd1DihORCPRL7nbAqWSzHXPAe37OADNiHCms4CwAlT0hxvkdxIcZA39H2dSgIHAJgCgnjqdZBBWUyVpHgGfwhgj6yDbfCHTIIxcMiZdGy5EFHHpEYwUUkCNjc5s0wKwo1Mj/JS/ogNPAhq+Eb67I75vNFyG14ZUxNPjSZeyJfViJFABOm4+pJBxA07wlIpQBK4VBQwXGxaKSFACjiblCjSHxkrW9rhoMECJJ+p2bEFfKrMPf1TmTqZCGK3NliCcbyIAkXj6QpsdLOKgx0MwRxiN2ZCMITXN+hnChq7Au2gWLRvKgMFC3eiOEBuh0Q3kl1IBzrhGtDRaqAqYZmwe4FBIVDNeBCJaCvKItLgtM4xYh3LTJ26L5E7omxGAxsX7FlsChwugTDnXBPOTovPaD4R8hs5BVTWNCyrPnEsVpupE6O2E4cELMM4nAL5TdjVHpCTuDYMAfxKN0WEg8Jh3Qgrwyh6y9MOaHL0F/MI3bkcQ/pwt2gCdISTAQAwGVu5c7ZG7w/cFyRRoQgyNgeC2qViFx6TsI9kOCSBIResNK6Cp3c/aK1oEVkoUOnx2e6eTyMMXIFVkEWInYRel6AJnpVyfRPv7off5F5QMw0appEGOTtZYlIgyR0xPY3rFFjfi+m25M7oIi/LL8IFtooAMkC5xHIaEUgdWVUMNi5Jsxm+mlSqDY0umQo4hnZQpgg2jAww5GxWQg0FrBYBhRBOoH4AanQ970ysHXhtAnm0gTBsBdzXwyqIJOJTv5vZYfXTwsbg2mYCR+E5gaQGwqzNTlEYBCuC6qch6LS4JEmkkKC2vCJu6hU4K/DUzKeTTSSvhVyJk0D7qTqG9RkVMQArfjOQ8yda4QpuAKgxfmqYTfkQhwhDkCdPX3E6cDcYLocYueJpDuhFKV5XOew1A0kaovvyUIUSlhkFDo7bVy2bEx55tCEQcJPHJ7emHfTt+0mjDHTIZ81wfv5Uw3mPAosADWAPeAh9b1UUmWoDLG9opEKrqZbM/x2PD7hBoA+MxdARgZ70PGOZShCTUQhLhQWRjQmtO3AbyLKmSj5opxkG1nd0yA9cgNaRyaXESMxh7CE+6Hp0FWagqiEqti5PInGwKo/CQPAzBoqiIXoWlLJGJwRx5QSETsn1mM57ofeYHiVqSbxArK3T0AJH1zs+Wn0BEY1qMpLnGRBMWFYVAIwiOoQX4M5QkykdkktgOocYgnKQ/Gz5tU3JhwdkXpGxVrnbSSf+Aq6vGQHLjRDyDZVZEGksb6BRcLwQm370clA3mVstB7kkDYhI0DlsIgQEnoZlIDUl1SA/lh6B+o1UoOEgQatI9tgPRABqcAUwLwyJ1X7PFUxQKRgNJioA5xnlB7MBmnH5rh8mRPQXKkixABd7AIUGqD20JVRATd1MIcS3txloKJYqgiRozV4YgIbbIdpQSFyHAYn9bBw4DCxgKohuohcP5VC/uKTGRpUwP/Hrj2VsCo6O+MGhUHuL6EWX2/jUToCGOf3TMQklHFaPJ+PvWf5fgQhmonYwSay/hoimV27ShSIBYwXDHCIHXAsDiQWQvWA1UMlrY0ohSzMgUpbcpEIIHMR35nZT43smAjm26sfhDOhwuqrpoLJhqKEU0EuUEyMyS7LcT3mDg9MhHNjqxFbtWRsYHZmRXEDloVcucXs4mRiG2Ha8JgAZuIdidByleXCkYMmZBPvInDxKicCDhiBuWEAw00Oqw2LBtxih0NFI6rGow2RObvqfW4AbAyBrFkssoo/GACCAL9XkXEGcPP8hSsxMQDEHqQ2oZNRD8VftOeL5aoUAfuIQX6EyvrzuuOW699NlsYG6t2judOcKXl4DYuRFvaBH5MaRCqGAsVUJjJdlgbrwsyU6fkNMpcFWeTr2HoVKyCXirXe7mFHUmBdJBmgTSISDS9rkSv8GZp8/uvYgoCnFNpK4+YhYm1duHOKY812t4OcrzGQJth8mKyxYoo6laijygkYPIhB1LsD0zSufAji6aCGMQqpOpjPSiDyeRZcDLpsNJwdQiUkrAYsoEceBFPHd2FiDhGARRsIqKlaM+KCyc6O7N6qn6gUZx4MYpDAnKb2TJ463hU68oEUJhuRhheMwyIya/hOQ0uiOogapxrWkS/DqrC+ZEqfDIqcQvAxuS1muWRV8LkClgXc3z4JbgUYiFecNb9xeHaogTVjXtBSsOck4FDFFx6yaRO7i/5BzRIzBGLPmAG4oE/Eexc9Sh5WlL8sAvKYEAQCEZRiOMQwbmEwpB4xyUxpDrgyAKPzE8Qg+PekByqIe7Ii+H4ABzsGShSVeXjjTA2T4VUclg5QFWxKbl+mh/FgU9EtwEscqp2qeDKAaldNeyKlFM3nOXhpMSW83lVVBEU2BnsUv/FN4yKxue0hoLk2fiyVcixB6RfBjpFppZLDFdEitVYFzwXT6z+qZTx/gicdPAaxCwkje2fAQ9SL3+h+5YQYBZy4AmhDvO7b9BAIHgw0tgTE4jGqnHF4VUpIj8cZKsD6yx1BAagd/+eqfGMfi9EoiQBMj8atOIQRGhh60OuYGlWBgBPFmWqyywO4oOMkndLRYjj0K6GCpUvNV0LmIWWw2WP2Sb7Pg5YgBG4ekK8h/wGqu+9/kFWntg5xT9WqTSjbS+3aeCJ2W364CWwvdAIOzZB5hTh2C2Cc4h50e0FVBDinGlbtMo9465q4wNAuxA1yi/gdZqMy22FUsC6C2RVD4iaRkQN8CxTVzo9YQm5oqtASBzUaAws4ZWIHR6kKdX3FST3lJpRIfSODXLKTlk8noVsRAxJycic3fgogXdVnQEe8CyP5oY0W8Y3NkAC5ALIAhtnc8uQr8SXvOlFfRAti4nZVEDCGr/aUNsaqAKhAsUmMXFkl1rLKlzbmMARHBkEJyC+ElThbWwmNYUEBxInWzTajzRcZhz/xfjwA/+Erq4aera+QupFtMOhFJVUiY0yR11Z1BUyV2hNyMCwJaZIaL5clbuAwZKrTLlwhbYhWuzwsnlZ7acvjT+GmV2DHnCRFe0Cf7A6bYdlLrGuJjuD4UsN0CbcFW1RiTqDlS5NTxQlkG8g0bVCgbTr6tk9V/YPKWXJ1JB0TBaclpBq+n4ibhAgAwT/qnCAIqzXVhIsqGOminXA3p215SoBUUmfOhjLBnK+FFNPWtxtNyY5uWiwH2MKSI8d6wahiRXZHRu2rsjMTssWfsAHycc2Fv13AWk4mseISCpQrkUJTiYmMLcL3otqGkKvhFdCEqgRGeSvoTk5T9Sx0TllCU0vjOiwIigHRLQtTinEbeKzeT021qMrP5KPTI3z7GgqyNmLkBWpSxbUZQiiS/VIJrecFSuJEsG8AKm52a1NJFppwRHfDXGQJIkMl04hMhznwlT1n3AbCCTE6fRUPGIh5NXeeuN5gXnxP4gXpgC+w2k94ocEooVkCJPCw6rohcc5wRSWny9wCcCcMYEoGG+MRuR+xcXKF9njIyARC3B6QXhpUI0/QVFMFZlSyY16A9DrRtEXVWdiqqI62VM1CL4Bkl4gudidAf/Df0ERgYQCMUHzj+QDX0ZyyWymPUOCbcbXvxZWGng6bkZ5azKXf0nA1BbWO8RvQWX0bEv5ZTiyWY3iFdxy/QDaBduXhxdhdMThZlN4ARkBDsYaC8gAZZKVC9qsoMKvE33IGqWFgh89H7QBTVsOrxECws6qoGPyyafPm3HYiAm1h49AFxORpoWKo8Huluq0SOewDHZKUQJT2ZZc2X4mhR2vok7tNTHlV0iw8JsTJz3CCBje8LaDkCnzH8ifQB/jOu6LJAMSUoGD0D9YKAW+gIkGliil4A4uawAxcaOpCUZXdO7XITCQqec5YBm47NJWaVTqSKf05jHmBjscpjanqqHmBv6ro+BSVLcCIV6RA8SAnNMjhBf44WmijbsQO7ABoLLx6iigXQnz4cWt39UZkr8o3npXJEIEMO6MFpwgwRCO4waUko7cMNU4bhbvBNGJswwUvuZgjXPQQGRN0YGj00B9yr1ZYjDSEiJHUiEomTpErWbqGepVWk2PVRsSK8VTH1Q96wt8dyaDw2Y1LKENm85SLKwNZcbfa48jQSl04zoqOGPyNs0WayCJk9yI3yndeHlgzhpACPmF9bk9CIwbaK65oDxkQRBFKqOIq+HO0VYU9VKkekukqUIMLKIiIfQVAldIII/UGZv+HnjA3VZ0mKgZZk/sS+eKKecSDWzA9o537YGRfL/AF4pFEaHF0WFOlVR0lakZaR9JKugUYyZZR31wZYresnSAGBfTjL1W7gG19Q2EbnuVoywbxPpT0QTiajuTtaiqNMTMsjAqeRtJDSeo2qflgS1lNBJtHLwb1V4QmGAZ8Krm/YQG0htSiB/ccQtLzkrdrh6jJm+msehePsa90NFmAhzQ15gh9y5YQ8Q20Q0NK2zVNgsOU4x7B/4mIQyHjZLJKW1octRMwd4G4wi9J9Us53oBWepvAC8GeR5acQEPCNBve6wfuO+0QFAZBvL0orgI7lf3jksUx1VEJprJ0YbXoXwEB63KgXdK9j0Lyk5dJcH2YLWB1XkRpI2mQo0nVcj/BWFNd7Hka1Unwa/NJuYGj7cL5ICC9Rb0ReK018PwJ50JEqzgmZjzyzF7NTypbbCQednE6FYWRGwQ961V5XqE35n417AyhFVsSbiWWfGnjgVz1r6qOWICGMZvatY/BoVAeuwD1KtB538lX3J+2+FASYPaGhRpasA4poPO4zcPc6juoMD2iJ1txwV5rTFCsTm1U2ECLpA8uLzJkowwPJIJj0b6ZNpQKwWjaOUSPG/kf5SDRUuh5VnoQWChMGONtX6gH4o+ahhATsCURIoOqDS48nXtVNUCyHIw1fApqNN+1dwsUqlyfXjHBkAt1Iq6ZirjI+yKXMkh9pizmhqc1f+QesCmmRs+hDVaZ6VWbtoH6S16uqj1GdWdtFadVSJL3ntobGCYW6egkEa0yQBtKRACybeAEke/qNUvoEGQaJHfkoxGHi0AGr4kL+VeptDqOQ4oxOoQDgq909TsgtQvzGt8F1GgAByMFeSIIkHwiUBkGULgRQ1348HJtiTMiFxfi2IGy00SCYQo8Pgx8RcP7IJCc7T0S68ACQ7lMreAZT5kBLdcZIYB2eaYEBuESuHlKaFAuoMps2MJXpNWGlKrqrdKpU40hUOHME4vI25w8cvSlIsFJHHXm4kiRxDkoJV+/zkJ9n/BehVppWGHICJVxFl6Pldyp98LQturwgG2H2khcEg77p9J2xImhXYEpboKngjOmSjdW0ao1KAPGFdeBsKxayeTf0XMm1RlrAMTRPKo6WnmF7XjR5eXVbcBbOJKMw7VtNSIhjk6HJZqDsBiK9ofAFhh5zd7RNg2aAThI29CIVGt49/rZ7pYJIX20k+VVzjiqPRUHN2mDVLuXuZG0IBGmkVUa6gu76iOV9GMmMtqWl+yIvVBfHMlKiGMmUTGoEe01vh7MHrSvzxVe84S2Qeve0us4xyolWMECXoLN4CbwNgNUe8orp55Nrj1kjmpyui34J4pfD4ZWuqmUdQ05fwR18AE8hqRXb0k1bWkww6i/vB3yhZQuU1ucLUZtIuMKsRxbXTANplZj5CGP15m+vJIdk7jz0d4+uUS0l1Grw+KMumaIXXKXvIPD8uvrNi1L566sfLvoIHRjUpsw0jpmufQ7SCpgBLUXGdpmoTeKU7lP1oK/IIC/BWDOA6uivhYicA9cFysZQU/15REjgLUdUTAE7K6q80Q3zhPmU0OJdomxR3gN7oaYwKsBNCDWUqvpUV85MSFDFwHFg/ir+DKnDXWVp7mEGou4Ia7ryK0T4QScsgyHCuEAJT/RJG87luRys6C3bq4KQnB2sr7odjW3HDW77v1OY7TXJGX3dewGFpWRCfKHKcCBl+HstRA2xE7KUZ08BVVBkILgLCjGRZ1fZPnKhktBxzdNFjInIgDUJqEmLhjaCaCPGgG1z4jeJOjBsOO1RZzkBGtUJ9MpCe+LWURjao8PQxxVkbmg8NJuvEMZ4vMhbCSTNIxA4TBQPJqojjRFdDFG3NEGHySXtMfWXhuAdoCe0F3BoTqJ7VEyjKqecHgbFYT4g7HIPIBW3KqOi6IalFfhG3dseSWE7swR8QSsd0esG4wbtnbJJ4b1MIdTFRZk8mLtujgFyvzz3YXqktqeoPmBMryi7jyJh5HjKGC2wfoA2GziYFA0fgg7yjaQA69rD505pzniSdvAMcvab4hvYffxwNfDvswEE1phnIEFHlinWWX4yfarvjN1W6tXAKXvUFmW1AO7AjINZSDJAX5izlLsWSW2Hp46wxQSzHoFIkmlo7jm6G+TGbhy9XhmFYkpskAMVfXcgD0sOmLyiD1htCvVhSeAP+I8qDxkHDQD5ahBwePwncZi57VmipNfU2UtUY16KKYi+R0YNRqDmcf5aYuaYE0m85PlWMhM2+jsrn2ZpBYwuLWyvFuVb9W4FVyQCzgwkOpTp3jQy2oMAVbBAXl+YCxn9ek6adhL6EbmuagFFaUkCwREjvGKjtpZJw+rv2pfTBNamrg7cB4VhhAZ6i++DislTDPtBmmVkNzZmB2V7o/6d+6Jb7uS1IGREZld+3Sk4WsnKhKi8MR1atU56i4W32BhEaXPWXcdgtiB/EayV/SEGprU0dKTmmqRRyoQoVHU2tlmcSxAGs+/wk9zkIZpbjVeqlOkvI2UqaozbNtVG8QzogKZrI3Qy6SKtHW344zoECxYeYE6j+TYDaGo4Rb2OlnVAoRQJFI/aHpSIVzRNkcV/PA2I4ykjf1YSgQOqlm/8Sz93pLscyHb4lXdPlU1VDWZQ7QDcZbUfzjUUl+aGkscyMWgIwkaGsvUUw3qM0N2N5megsrrii0mACJQPZ2w9eod1zZH0yGzCTJPF3SFTjISInKNRLAUKFmH5qraMdFOEoIUb9ZUoMAlYOmUtRWx3GpQGhe8CFSDWFNzVYVp+J9N3DVtjY0bTMiLoW/A9al9qYNWhQhCJ0f1g0ftBmecr0M6LOgi8aiYv1tU6sWbQdFdrH9gTvAETmRG0I0TIXtk4sOScZEIkoY+y110InGCAjoqBqiTLmhjqY8lT0NkqpiGBFsxyHXjbLmvahRNjwTbMhpN9pHMbZJ2SQEOpKo1tiL7eRwZY6Lqvx0CIkj157zycYYtgPADXlxzaA3A8KD+XsMD0htyxSmaWmjGgyJIQGnK0rGOGSsClGMl1QDVU5H0x5K4pI2tlpCaEv26UX0zC4YRoMwpvHLD/OxQp8y15aSk/oTHoKbOBIRzHRARVW7lAZ8PLjzbiEQ5v0YlN5Scxw+DLXAGI0vMLsuekG3gCRl7oX7Eh9O5HfwJETAIcYIb1te2OPy3lk42tRYzRDbtMLMxX0hpqcXWq8gtla9YWhWhVeTKyZd2VDnaqrwXHZmajchW48x5o2aMhP4M3L9GFcbUaRdR9+phLuZq0KkMXq764beWjvtXemwLDFHftJednBofQJ+ZeICTX5kV5xcklRAhyOjPxD+gkdPqHrGuEw/EQVVjz3wtD81JI/t2IYSF4JOZWQC6V8FMx0QP+uU8J1yb9tc24nnN2SuPBNIMFRhmCaE6IBF+WmqsvCDFEgCAheolYU50XkPuX9SYXy8oKwTEFa99DtDaq0kfP6RTh8dUMoD9uUBQO0AEl/kJCz+vtqs2r5hq0AJWdXYPaDPwX01iOgygcp4aKxW72Df+VaMJ6lkEWnjEoqMP0ATODnwGREgErD2DMVtq59vkM+I5vMqKO4oyIhiQ1LkPnvxVPJq6k0nOoyLxOyQCBUP5QGu6yqclG1IUSkvd3/j+2MRTGihWh0A7cYasZCqWPbwdoraN5Ru9ztuWIyBbWge0Jz5bLYn3LueLivqQDnlLsNZ6t5+djHr1dTNSgxtrA4a3YZ3Hq/zjnQuSBZp6l73E0duX0WaSblbvt1upJP+5mdLh3c3/9H5fd3P/vZ1qgu+Gv72dbnb1u5/c69uwdB/3fzGsZ9e/hqV2Pp2f0TkcxDnQHtUv3vfGcXUD1a4OQ6zR1Qc2LXgwFcIDd5eaT7vDtHArUmHJjb6ZIBvKeU4a8Hp37YAzPyOksvYxeS/5R6qqYlRUc8BBVqkFtNKCV9TqCrcBI11naBJjj6VLC5EpGQcFH6vAi4zDgisWLgDg68pnOPGlWvOGj0RKyhOgvCODsmrqajpFUwBAHrDi3jDz1kuFYXfXzgjYI8l973Z/ZSK/hcf94/Bwn/iAYLN8nQreTNc7wMedEXAgIY8LqRuErQbcG3T2L6jlEJ7j36XqxHFk2IbkL5pDl1cVHr8AKTO/tnZXH8O2qq1YoI2h4R9qSDoOthE/QmY5oOkyWuXuyBdhw8QJF32v/joG8bCwjoEqRdkFtZmr2AALmI5LITRe/z8OBqYdagLF8WjHX0fDigqo+bPVE6+2tkFg/Bz3MEPohxAuCicyVxFC3EA9S+HCpyQEkQadKYvvyMxIyKNysHhF20YHCTlV15RhutbUJO55v05hqmGWhc7aqZlFgq1h+zGKOlJUMxCJBAWe9zpraYdf27FoCZ37B3o9+A1XEpIVn41r3VwI1ahuOYbnLzpuysyUm5gWz5VAbqE2l391OGlwVWllOH9XVnR/4ZDivCqZQ7XYWaShWgGIFLTda07V2sK9Dnvr3/EOfuH1R6dCEkoWa4DKKTqOhkDN2ibT+dSVvJTXgjnUZpc3gXVMlQiBuiqXCNKsiiE4gAPZSecuohbM1LNY+A3xhG6TxMN1QCci+AXjQM7BO/Uu69MXjPmuGDgdVZqqlkJNM13Z9ILx2KiJ2JBtWDSy/L5KRNcZt9hVhb6ua8tB7aZq9zk6yltISBhbVtjU/L49GaAdL+3YybuRe528HjquwPSAEJgJp2FIKZP96eT7TtzW13MmD5qtXd0fkdWTWIuIxcapN/Jx3lTxm1Ww4nBDXYT1tZNTZHdkbVh99WSrxQeRZVMnaiTnrjaRMFQlPp2kSelyVW482XW+9uAumh/dZvK0Rcd0rzrWJS7wbqowRTVSEl86uYD3rmDlGDpKCLCd+3kaYn8wl5l1mKdL7BUpKJkTJCTDGE17aYgo5DyoJsZQ7dJ8aJUUWZgYyz8TUhExyDQl9UUS7WDH6xLePQhkeCJ0QkfV+IVuchE6OLJYuE9kZkRNSVaUq64nEmWix6CspEIcaYdcvz4hp3FMi7zVRyuAn82r1VP1VfWGIQr1LNBC0iFlHWvTTikzvZgzlWAQ/wOFVNSrGBX+S4JXfenFSd9FU1F1EpDqUVsM59UGYCkuzn/qqdImBZN9ma7C2sa1L4AB271yZ78OuJxJiKnzMmGXd2wjDxVr1EeWphTujkES2Vhp0gyBU+94DblIIwUheep6xK2ojZccAzMbkDQZrXobMddTzTI4Vi0so7T9hyUb96edojmiTpfOf+vQpfp7MRHqMeTZAQp8mbhQRyHwax/dG3SSoWDrse5bB5rkHZam2EvjetzVjhvfGLRziEZHCpd8VGJb2gdFZ1fT0Q+rQWVUfNxU359a/dSKR87e3jCIzFBAjFpX37pIUD578FKhm0jKZWw0+YT6yzppg9FByMC0RGQVxnuVHjS/IYNjwNwyHeLNqtyiSrVpwcDVVY9mIYHgefy3r7oI9nvpbHF+/dJXnxpwoBIjicvar9NqCDi5aFK3axm7V5dn21vnENRKenUGG1oGwuIVNb2K7RIp5dewmYc23j0OEziIrGpY8VVMsVkq4QmnhKRqGyN2kSdb2/2qB3Ud5cBwNm2Aq5u8MKEF2wu7aiMOWaFeZChbvduqGyJhqsgaIm16SmI5Tx0/ETWo+slafk6fSJgEtVlE9U8x2wx1uPlo7sLgrDoW3TOn/n3CzNk8De4DeFk6tcMyzasTtq+ZfJTK2vItwZGYKoANFo9dsr2pbDZ1SEXeNmljUHvs++1qqAaQdQiGxHutWNiV9Q56AHZwG8pfIkBFRkPnj/SO2AR10lSGVPQRGkNHcDLZz8IQXglPpAYMiUOuRWRA8ub4Vq0YPanL88oATrRq1k4maiVYmGrE5R3IKXV7DJm7OC2rcy/pgJeOLkcuxBryZOAb7KGPGio6BaeC++fo6tB4juG0M8lB3uigcIDNyg2w1CbD0DtD9Wx9NIy675JMVtDRt61CJX4bai/5mpccuZqJ+CIUPZaRJ7xLVZI6uKtXtQZriMKvI2UEdtWmvToZhzq+8sTSnfg+SmJBfdjmV21tqha8w32VKO3oLEyNDiIP2BnKbzpoDrmojZ2gzdK4KnalqOQr+OercvLZEK+q4WETcIgQJmW71D99oVlboxPl2XSCXK0tTWqtJX0ch1rXYBRJWHiFEPU6dgxgYBMtvJ12R1IPncPUqbIT3gG5VLT5tOf7nAYWKnrwGgPPjUTVd+szdnTs0JMdLJtam8wFvQVIQKip75pXY2kQZKp8qPC41Wu1tYNP6BKvOTadg1FlpchtInYH0W4of1IO80L86Rg/+SsOJGYQ9DoMubUUxkMAZRkWxzZMblDImdaDZhwGJDXcBkwuqS92UDucBX28BJRX+tj6GAf8275E9avp2FFHDOymfQTlIspcHSzk2tL+jxrmn9kE43XMfmCKCB8Vw7UboLM4Ux0aOpEO6yMqLjSVVblSdzGBYU7HIxgtKhGZvrY+UQjFUJdU81aRpKIIp7CTUNtXhX5s0itOCEPeeUShjisPRlRRnfYggJxhzCSSV1fUZ6d9kL5ELE/INRRqWeIb26pd+onakhqZcGNj8Pel5oA0GLvkZU7HdNQWSEGTdj2HmhSq6oJqKtWZnKtTAY23g5Dq3Q069Q8FqlNM24bSUxArRqbow5CmFG1Sp4GkqEpbhKP6YlBu2pOEH67D8yydYLj/7nNLutOBkK5mNrEQypT1Yv7P+7gEOWriicdUQ4rOrvKIuPqqc43zbRap11E9hMWlFCVSko4OkuqmbRKvtpjxjmsVr4/20LFOcEEnQBP3Qk/JK9St/pr6mqiW024I3lufFbODjuxf5i4k88BCUQcFjuBi8/HG6TXj+zoQjUF7C3D1wAupFZTlh0DUIs1IVKvSZ9tIoPUN7+aQLajjxuY0nc8kww9QfkOq+ggKFkfHNt5n1cD96kfnddriU1+E17mb+qxKwKRWwRm5qzPPOE/VnHB74mV9Jo7O5jS0aO8OZ41hM6AR2n/bb2qV1+4Jt5QK4ulYcwwWkhm5JPbu8H68V6c/eM3ZUG93gJBA60rN6WgGNkAfOOeb6u1qxtYh+de9H3XOOKpOoKKHet10uLsWVVwnFgIPG7SxTjwHHaOpXQ2PQ+2YXT8CEKsORXwOHnV1tRMLgAtcObW7QpiCqE4f0INiIMWqNtyzPufLvzq+WEa2ThtUQcfhu0oaauxPknVqkgUms+LcqlfLcOr6bBkSC0iSk+xqVmagfaup+arTKiIupPqAClKhd4w7D9u00S/5zAXdeichdOJN1gR0YmHm+6gBqAs1u/tpKlYVHSj1WZ+wokNW2vRhPXQAVmG5Cciq40SvBaL3e5s+QqljQZs2FD0JoK6vpY0DAlyZk7wYbxZ9sMdWWEDehJ9j9nTrE/VpabPruNnUkYioD4lARvZuFWve9ZkX+uyLVFUCOkp+cgvuj2IFteiBBvgGfYJAtMh6qVeGOESNHR3Rmavok2AaNHO8mrgLcFS0N6/zZgjC13mgI1U6mYu6+IBVuluHGlkcbqaz3XZTg2mPjmrrWDxpH9s72BteJ8Ye6t8lCZ22YZ4CbQpl9G5XnaDqOto6JJxUl1pLOy9id/idl2jXc+jg/lZ1fIETTrDideLQeMyCMN78M/TJNIRr2rA/ecJw1juKrs++aPrMhfuOOjLpS40SLJtDB7/j2p2ZfucD9NktWCj1WnJR00eT4FZhdzWzgjKq/hZ9SI1K4Dp8oIOpNzrZA2WqzjzDGfJPRc1QOh+itnFEEvA4tc0fp87qyYeSM+OlJH5hvS2O49QdoXYaiYUFjuksBMPk3hp/QgkiaQQe2ixuLamrVtSIRVKppErvhvf5R0EljKhd2o2QJOY6q8MD64zdwFokMlLlaX2UiaAMwJKWUL3DH/Jayh7R5lZeGeWUl9LKVF5HPLRE0PsYdIwIKfEKi9iaLT/Eozds4FbzCRANIqK3zVwKPmHnYUuDW7hpf21NCNOiHW9V7fRJOOgJ1WJV/ljQqOe9sDbYMEylsitgw67rkxFqGphxAlKfoqKP7an2dgBkRFDWltSYsIMMG0l4Prsx72Srdln1qVXgy+RN8P0jtTYJhDOWzs+C/n/xdGN2P/2FzsotNXUxZ1ufq6Udl6kqlBWcjD40RM0hqGnbuEqdj8Rl6wMc1FM7A3C9dQb3fehS0uFhICGqmnAllQHcurrwgBcCRvrEIXgW36vP0ojkuw7faDeONcqL/IVe1S6HBc2f6/7jof2Dr//PF6pQrj65838BJTugOd7/6McAAAGFaUNDUElDQyBwcm9maWxlAAB4nH2RPUjDQBzFXz+kIlUHO4h0iFKdLIiKOEoVi2ChtBVadTC59AuaNCQpLo6Ca8HBj8Wqg4uzrg6ugiD4AeLq4qToIiX+Lym0iPHguB/v7j3u3gHeRoUphn8CUFRTT8VjQja3KgRe4UcYfRjBsMgMLZFezMB1fN3Dw9e7KM9yP/fn6JXzBgM8AvEc03STeIN4ZtPUOO8Th1hJlInPicd1uiDxI9clh984F2328syQnknNE4eIhWIHSx3MSrpCPE0ckRWV8r1Zh2XOW5yVSo217slfGMyrK2mu0wwjjiUkkIQACTWUUYGJKK0qKQZStB9z8Q/Z/iS5JHKVwcixgCoUiLYf/A9+d2sUpiadpGAM6HqxrI9RILALNOuW9X1sWc0TwPcMXKltf7UBzH6SXm9rkSOgfxu4uG5r0h5wuQMMPmmiLtqSj6a3UADez+ibcsDALdCz5vTW2sfpA5ChrpZvgINDYKxI2esu7+7u7O3fM63+fgCsNnK+FPCZWgAADXZpVFh0WE1MOmNvbS5hZG9iZS54bXAAAAAAADw/eHBhY2tldCBiZWdpbj0i77u/IiBpZD0iVzVNME1wQ2VoaUh6cmVTek5UY3prYzlkIj8+Cjx4OnhtcG1ldGEgeG1sbnM6eD0iYWRvYmU6bnM6bWV0YS8iIHg6eG1wdGs9IlhNUCBDb3JlIDQuNC4wLUV4aXYyIj4KIDxyZGY6UkRGIHhtbG5zOnJkZj0iaHR0cDovL3d3dy53My5vcmcvMTk5OS8wMi8yMi1yZGYtc3ludGF4LW5zIyI+CiAgPHJkZjpEZXNjcmlwdGlvbiByZGY6YWJvdXQ9IiIKICAgIHhtbG5zOnhtcE1NPSJodHRwOi8vbnMuYWRvYmUuY29tL3hhcC8xLjAvbW0vIgogICAgeG1sbnM6c3RFdnQ9Imh0dHA6Ly9ucy5hZG9iZS5jb20veGFwLzEuMC9zVHlwZS9SZXNvdXJjZUV2ZW50IyIKICAgIHhtbG5zOmRjPSJodHRwOi8vcHVybC5vcmcvZGMvZWxlbWVudHMvMS4xLyIKICAgIHhtbG5zOkdJTVA9Imh0dHA6Ly93d3cuZ2ltcC5vcmcveG1wLyIKICAgIHhtbG5zOnRpZmY9Imh0dHA6Ly9ucy5hZG9iZS5jb20vdGlmZi8xLjAvIgogICAgeG1sbnM6eG1wPSJodHRwOi8vbnMuYWRvYmUuY29tL3hhcC8xLjAvIgogICB4bXBNTTpEb2N1bWVudElEPSJnaW1wOmRvY2lkOmdpbXA6MTUxZDI5YTgtNzVjNS00N2E5LWE4MTEtZDgwM2UwNjExNmYxIgogICB4bXBNTTpJbnN0YW5jZUlEPSJ4bXAuaWlkOjc0MzA4NmNmLTljNWMtNDYxYy1iZDJlLThhOGQ4YzdlYWY1ZiIKICAgeG1wTU06T3JpZ2luYWxEb2N1bWVudElEPSJ4bXAuZGlkOjk4YTBjMjg4LWVlM2UtNDIyNC04YzA1LWVhYjYxNjI5NGZiMyIKICAgZGM6Rm9ybWF0PSJpbWFnZS9wbmciCiAgIEdJTVA6QVBJPSIyLjAiCiAgIEdJTVA6UGxhdGZvcm09IldpbmRvd3MiCiAgIEdJTVA6VGltZVN0YW1wPSIxNjgyNjkzMTY5NjM5NDg1IgogICBHSU1QOlZlcnNpb249IjIuMTAuMzIiCiAgIHRpZmY6T3JpZW50YXRpb249IjEiCiAgIHhtcDpDcmVhdG9yVG9vbD0iR0lNUCAyLjEwIgogICB4bXA6TWV0YWRhdGFEYXRlPSIyMDIzOjA0OjI4VDE2OjQ1OjUyKzAyOjAwIgogICB4bXA6TW9kaWZ5RGF0ZT0iMjAyMzowNDoyOFQxNjo0NTo1MiswMjowMCI+CiAgIDx4bXBNTTpIaXN0b3J5PgogICAgPHJkZjpTZXE+CiAgICAgPHJkZjpsaQogICAgICBzdEV2dDphY3Rpb249InNhdmVkIgogICAgICBzdEV2dDpjaGFuZ2VkPSIvIgogICAgICBzdEV2dDppbnN0YW5jZUlEPSJ4bXAuaWlkOmViYjRiMTViLTFkMDEtNDc1Mi04Yjg3LTA0ZWJlZDY0Njk0NyIKICAgICAgc3RFdnQ6c29mdHdhcmVBZ2VudD0iR2ltcCAyLjEwIChXaW5kb3dzKSIKICAgICAgc3RFdnQ6d2hlbj0iMjAyMy0wNC0yOFQxNjo0NjowOSIvPgogICAgPC9yZGY6U2VxPgogICA8L3htcE1NOkhpc3Rvcnk+CiAgPC9yZGY6RGVzY3JpcHRpb24+CiA8L3JkZjpSREY+CjwveDp4bXBtZXRhPgogICAgICAgICAgICAgICAgICAgICAgICAgICAgICAgICAgICAgICAgICAgICAgICAgICAgICAgICAgICAgICAgICAgICAgICAgICAgICAgICAgICAgICAgICAgICAgICAgICAgCiAgICAgICAgICAgICAgICAgICAgICAgICAgICAgICAgICAgICAgICAgICAgICAgICAgICAgICAgICAgICAgICAgICAgICAgICAgICAgICAgICAgICAgICAgICAgICAgICAgICAKICAgICAgICAgICAgICAgICAgICAgICAgICAgICAgICAgICAgICAgICAgICAgICAgICAgICAgICAgICAgICAgICAgICAgICAgICAgICAgICAgICAgICAgICAgICAgICAgICAgIAogICAgICAgICAgICAgICAgICAgICAgICAgICAgICAgICAgICAgICAgICAgICAgICAgICAgICAgICAgICAgICAgICAgICAgICAgICAgICAgICAgICAgICAgICAgICAgICAgICAgCiAgICAgICAgICAgICAgICAgICAgICAgICAgICAgICAgICAgICAgICAgICAgICAgICAgICAgICAgICAgICAgICAgICAgICAgICAgICAgICAgICAgICAgICAgICAgICAgICAgICAKICAgICAgICAgICAgICAgICAgICAgICAgICAgICAgICAgICAgICAgICAgICAgICAgICAgICAgICAgICAgICAgICAgICAgICAgICAgICAgICAgICAgICAgICAgICAgICAgICAgIAogICAgICAgICAgICAgICAgICAgICAgICAgICAgICAgICAgICAgICAgICAgICAgICAgICAgICAgICAgICAgICAgICAgICAgICAgICAgICAgICAgICAgICAgICAgICAgICAgICAgCiAgICAgICAgICAgICAgICAgICAgICAgICAgICAgICAgICAgICAgICAgICAgICAgICAgICAgICAgICAgICAgICAgICAgICAgICAgICAgICAgICAgICAgICAgICAgICAgICAgICAKICAgICAgICAgICAgICAgICAgICAgICAgICAgICAgICAgICAgICAgICAgICAgICAgICAgICAgICAgICAgICAgICAgICAgICAgICAgICAgICAgICAgICAgICAgICAgICAgICAgIAogICAgICAgICAgICAgICAgICAgICAgICAgICAgICAgICAgICAgICAgICAgICAgICAgICAgICAgICAgICAgICAgICAgICAgICAgICAgICAgICAgICAgICAgICAgICAgICAgICAgCiAgICAgICAgICAgICAgICAgICAgICAgICAgICAgICAgICAgICAgICAgICAgICAgICAgICAgICAgICAgICAgICAgICAgICAgICAgICAgICAgICAgICAgICAgICAgICAgICAgICAKICAgICAgICAgICAgICAgICAgICAgICAgICAgICAgICAgICAgICAgICAgICAgICAgICAgICAgICAgICAgICAgICAgICAgICAgICAgICAgICAgICAgICAgICAgICAgICAgICAgIAogICAgICAgICAgICAgICAgICAgICAgICAgICAgICAgICAgICAgICAgICAgICAgICAgICAgICAgICAgICAgICAgICAgICAgICAgICAgICAgICAgICAgICAgICAgICAgICAgICAgCiAgICAgICAgICAgICAgICAgICAgICAgICAgICAgICAgICAgICAgICAgICAgICAgICAgICAgICAgICAgICAgICAgICAgICAgICAgICAgICAgICAgICAgICAgICAgICAgICAgICAKICAgICAgICAgICAgICAgICAgICAgICAgICAgICAgICAgICAgICAgICAgICAgICAgICAgICAgICAgICAgICAgICAgICAgICAgICAgICAgICAgICAgICAgICAgICAgICAgICAgIAogICAgICAgICAgICAgICAgICAgICAgICAgICAgICAgICAgICAgICAgICAgICAgICAgICAgICAgICAgICAgICAgICAgICAgICAgICAgICAgICAgICAgICAgICAgICAgICAgICAgCiAgICAgICAgICAgICAgICAgICAgICAgICAgICAgICAgICAgICAgICAgICAgICAgICAgICAgICAgICAgICAgICAgICAgICAgICAgICAgICAgICAgICAgICAgICAgICAgICAgICAKICAgICAgICAgICAgICAgICAgICAgICAgICAgICAgICAgICAgICAgICAgICAgICAgICAgICAgICAgICAgICAgICAgICAgICAgICAgICAgICAgICAgICAgICAgICAgICAgICAgIAogICAgICAgICAgICAgICAgICAgICAgICAgICAgICAgICAgICAgICAgICAgICAgICAgICAgICAgICAgICAgICAgICAgICAgICAgICAgICAgICAgICAgICAgICAgICAgICAgICAgCiAgICAgICAgICAgICAgICAgICAgICAgICAgICAgICAgICAgICAgICAgICAgICAgICAgICAgICAgICAgICAgICAgICAgICAgICAgICAgICAgICAgICAgICAgICAgICAgICAgICAKICAgICAgICAgICAgICAgICAgICAgICAgICAgCjw/eHBhY2tldCBlbmQ9InciPz5avyzOAAAABmJLR0QA/wD/AP+gvaeTAAAACXBIWXMAABYlAAAWJQFJUiTwAAAAB3RJTUUH5wQcDi4JUJ9T/wAAIABJREFUeNrsfXd8FFX3/pm2NdlkN733hCQkARIwlBAgNAEpLyUUKaKGLkhUEJEmSFVEQKVIVwFBelPpHUIX6R2SJVV5xe8rQp7fH7Dz22EmIUiRJPN8PvejWWZnZ+69595zT3kOkQoVKlSoUKFChQoVKlSoUKFChQoVKlSoUKFChQoVKlSoUKFChQoVKlSoUKFChQoVKlSoUKFChQoVKlSoUKFChQoVKkoVcnNzx506dQql6ZmtVivy8vLSnuY9r1y5gosXL0KdEU8HjNoFxQtdXl7eoOzsbLp16xbdvn2b7t69S3fu3CGGYUiv19Pdu3fpf//7Hzk5OVF+fj7dvn2bdDodubm5UevWrZ+of7OysvD7779TXl4e3bp1i27cuEE5OTn0559/Sq4zGo0UEBBAHh4e5ObmRk5OTuTv71+i375+/To2b95MM2bMIF9fX6pVqxbVrFmT/Pz8Dv3111/xv/32G926dYts//37779Jr9cTALp37x4ZjUbieZ7+/PNPys7OJoPBQNnZ2fTnn3+STqejSpUqUePGjdV5pgrr08f58+dx8OBBysjIoKysLMrKyqKrV69Sbm4u/fe//73faQxDAIhlWeJ5nliWJY7j6M6dO+Tq6ko6nY46depEvXr1Ii8vL6YkQnnt2jW6du0aXbp0iaxWKxUUFNCtW7coJyeHMjMzxb//+usv2fc5jiODwUARERFUt25dio6OJl9fXwoLC6OAgIAif//gwYOYMGECbd++nfLy8oiIyGAwUGRkJKWmplKtWrXIarXShQsX6Pz583T8+HG6dOkS5eTkEMuydPfuXdLpdCQIAgGgv/76iwoLC+nevXvk4OBAzs7O1L59e+rQoQPFxcWpc00V1qeD1atXY+PGjXTr1i3iOI4YhqHc3Fw6ffo0Xb16lQBQYWEhERHdu3dPFFpZhzIMsSxLbm5u5O/vT6+88gr16tWrh4uLy8yHd+158+YN2rlzJ12/fp1+//13un37Nv33v/+lP//8kwBl7dH+c57nSavVUnh4OGVnZ9Nff/1FderUoR49epCTkxMFBgYecnd3T1C6z/Hjx5GWlkYHDx4U38seTZs2pdmzZ5OnpydTUFAQfObMmQu//fYb3blzh4YMGUJnzpyhu3fvis+j1Bccx5HJZCI3NzeqXLkypaWlUb169dQ5p+LpIi8vL23RokWoWLEiAgICUKNGDSQlJSEwMBBE9MjGMAw4joNWq4XRaMTHH38MIqLs7OyMkSNHolGjRmjYsCGqVasGs9lcons+3HQ6HSwWCzw8PGAwGODg4IDGjRtjwIABmDZtGlatWoWtW7fCarVKJH/Xrl1wdnaGRqMp8t7169dHdnZ2hn1/HDlyBO+99x6io6PB8/xjPSvP8zAYDEhNTcXly5fVc6y6sz497N27F+7u7uTg4FBw+/Zt886dO+m7776j06dP07179+jPP/+kP/74Q1EtVYKDgwM1b96cOnToQDExMeTo6NjDxcVl5i+//IIjR47Q3r176dtvv6XffvtN8ftarZYYhiGtVks+Pj7k7+9Pbm5u9L///Y8sFgvl5eVRVlYWWSwW8vPzI39/f0pKSqLIyMgGFovlZ9t9Nm7ciIEDB9Kvv/6qPCEYhkJCQqhXr16Unp4uzo+dO3di2bJldOTIEbp79y4REf3111+Ul5dHmZmZdOfOnRL3bcWKFWnw4MH06quvqvNPFdanL7hWq5VYlqXCwkJiWZZWrVpFS5cupT/++EO8jmVZMhgM9H//939ERFRYWCiqiSzLEsMwVLlyZfryyy+patWqYt9fu3YNBQUF1K5dOzp9+rREjdTr9RQXF0dRUVGioEZFRdGdO3coODiY9Ho9eXl5hZjN5ouPeo+DBw/ivffeo127dtHff/8tEVCbim0ymSgsLIwGDx5Mbdu2LXZ+ZGdnZwwZMiR+/vz59Pfff4tHACKi4OBgAkDXrl2ju3fvikcHW1+YzWZavHgxNWjQQJ2DJQSvdoHypM7Pzxf/vnXrFhkMBvHv//3vf5SVlSXbTcxmM7388ssUFxdH27Zto0OHDtHNmzfF8y7DMHTo0CFau3at5Ht+fn7MZ599hitXrkg+FwSBatasSWPGjCE/P78CDw8Pyz99p6tXr6Jfv360Z88eiaDahIdlWbp37x65ublRo0aNKCwsrCTGuPidO3dKzq1ms5kSEhKoSZMmFBsbSxcvXqQtW7bQd999JwpsYWEh5eXl0eTJk+nXX39FVFSUKrAqHh/Hjx9HUlISLBZLkc3Z2RmCIEjOpwEBAejTpw+OHz8OmwFp+/btqFy5sux85+7ujtzc3HH2O5Sfnx84jpNc17VrV+zdu/epnO86dOhQ5DlTEATwPA+GYWA2m5Geno6srKxH/m6fPn0k516WZWGxWJCWlib77uDBg2W/r9Pp0Lx5c8nZWIWKEuODDz6A0WgEwzAQBEGxPTzZbZO0f//+skm6b98+6HQ6mXD06dNHvHby5MnQaDRgGEZyXd26dTF58mQMGzYMzZo1Q9WqVdG5c2fMmDHjsYINhg8fLjMm2f8Wy7LgOA4sy8LDwwNfffXVI++9detWREdHS+7DcRy8vb2xbNkyxe97e3tLnoHjOLi6uuLLL79UDU6qGvx42LFjB3r16kW3b9+moKAgat26tcQlAYCOHDlC27dvp3v37om+VpZlycfHh1q1akVTpkyR3DMxMZFxd3fH//73P/EznU5HFy9epIULFyIjI4OmTp1Kf//9t8xds3XrVtq6dauoEoeGhhLP85SZmUlHjhyhjIwMGAwGcnJyIh8fH0VVcsGCBejbt6+ostvex9nZmfR6PWVnZ4u+UaPRSB07dqSePXsWq5ZmZWXh/fffp/Pnz0tUaZPJRE2bNqU2bdooft/+fE903wWWl5dH33//vaoOq3g89O7dGxqNBhqNBrNmzZKt9nl5eWkNGzYEy7LijsLzPDw9PfHhhx9KVFsbMjMzZbtaQEAAIiIi4OzsDI7jZOqvUmNZFjzPQ6PRwN/fH/369cOyZcuwYcOGIl0h27ZtQ6VKlSTPqtPpUL16dYwdOxb16tWTvIuTkxNGjBih+B72+O677+Dq6gqWZcVd2sPDA02bNsXmzZsVn2XDhg0yNdj27kajEePHj1d3V3VnLRl++uknpKamUmFhITVu3JjatGkT8uabb0qumTt37oxdu3ZJggg8PT2pTp061LhxY3J1dR2sMEklllAiovz8fOJ5nv744w/ZvxUFjuPIx8eH/Pz8KCgoiBITE8nLy4s8PDwoMDCQUTIo2YIXbDuqg4MDJScn06pVq5i9e/eSj48P7N/FwcGBtFot3blzZ9CxY8cG3bhxg3Jzc+nWrVt0584dslgsBIDGjBlDBQUFkn4oLCyk4OBgio6OVnz+yZMnywInKlWqRCdPnqTbt2/TzJkz6cyZM4iIiFB3VxXFIyEhAUQEi8WCn376SbbKX7x4EQ4ODuIuyDAMWJaFo6MjOnbsWOSukJKSIjvnGgwGCIIArVaraPRhWRaCIMDd3R3NmjXDf/7zH/j6+kKr1SI5ORkLFy585C40c+ZMyVmZYRi4u7tj5MiR4ncffi6WZWE2m+Hp6QmNRgOdTofu3btj7ty5uHTpEv766y+MHj0aJpNJ7AeWZWEwGBAUFISVK1cqPtf06dMl78nzPJydndGuXTukp6dDo9GA53l0795d3V1VFI9PP/0UHMdBEAT06NFD0Tr5wQcfQBAEUWVkWRZ6vR6+vr5Yv3694iSbNGkSLBaLRMBdXFxgNpsxduxY+Pj4SFRJnufh4uKC5ORkTJs2DZ988gk+++wz/PDDD9i6dSuuX79eosm8fv16uLi4SNRrlmXh4+ODOnXqoHr16pLnsr/G0dERQUFBMJlMCAkJQWpqKt5++22sWrUK06ZNg6+vr2g5thnLHB0d0bdvX9mz3bx5M3/ixInw9PSUGdjeeOMNdOnSBb/++iteeeUVaDQaaLVabNq0SRVYFco4cuQIQkNDwfM8IiMjsXXrVtlk2bVrF+Lj42XnLbPZjDfffBNKBpjRo0cjICBAYi11cHBAq1atMHDgQEyZMkUy6W2/P2HCBFy4cOEfT9i9e/eWOCSyuObk5AQfHx+kpqZi9uzZuHz5MtLT0+Hm5ia5zmw2Izo6GocPH5Y88+bNm5GWlgYnJydFV1GdOnXExWfRokXw8vICESEpKQmZmZmqwKqQo0+fPtDr9TAYDBg0aJDiJBk6dCjc3d0lMb+Ojo4ICwvDkSNHJN/Zt28fXn/9dVgsFnHXpAc+xdq1a6N79+44fPgwKlSoIKrStl117Nix/2iibt++HRMmTED37t0RGxsrcwGRQtzyw3/bVO+oqCj07NkTkyZNwpo1a3D27FnY4oKTk5NFlZ5hGBgMBkRERGDcuHGwGeC2bt2KgQMHIjIyUrIYPbzQ+fv748aNG7Z46XHt27cXd2nV2KRC0UIZEhICjuMQFham6Ls8c+YM/vOf/8BgMIiqoslkQuXKlfHhhx+K158/fx7p6enw8fGBXq+XqZgmkwnx8fH49ttvkZ6eDq1WK056QRBQo0YNRUE9e/YsvvvuO4wdOxZvv/02Ro4cieXLl8NqteLgwYOoW7cuvL29YTKZJGp6cVZl+0XE9gxarRYLFizAtWvXUNQZ2MfHRzx72pIU3NzcsGbNGkycOBF169aFu7s7dDpdsRZu28LQu3dv8bd27NgBDw8P8DyPqlWr4sCBA6rAqtbg/6+qvvfee3ThwgXSarX0/vvvU3BwsMwSefr0aTp06JAYsF9YWEi3bt2iixcvUv369almzZpYunQpJSQk0O+//y7zlQqCQDZfaMuWLclgMNC8efPEkD+WZcnV1ZVat25Nf//9N61atQr79++nkydP0u7du6lChQpUWFhIGo2GKlSoQAkJCeTs7EyrVq0ijuNIq9WS1WolAASANBoNGQwG+u2334jnedLr9eTq6komk4mio6OpZs2adPHiRZo6dSrdvXtXDKP09PSk8PBw8vPzU7TG6nQ6MYfV1g+2/2/Xrh3dvXtXkjJnb8V+YGEWE9YLCwupsLCQ5s+fT9u3b0dycjJTu3Ztpm/fvpgxYwadOHGCVq5cqUqnivtYunQpXFxcwDAMGjduXOQqvnDhQoSHh8uMNSaTCR4eHtBqtRAEQeKvtKmVPM/Dz88PTZs2FS24gwYNEndV2/nNz88PYWFhCAoKEne+hxvHcdDpdAgKCkJUVBQSExPRtGlTREVFwd/fHzzPiz5LX19f6PV6NGrUCBMnTpRZab/88ksYDAbwPC8+f1JSEvLz8+vbX5efn1//6NGjmDt3LhITE2UhljajnC36ydY0Gg2cnJyg0Wjg4eGB9u3bo0aNGop+1pYtW+LmzZtLie77pKOiokRNZ+fOneruWt6Rl5eXVrt2bQiCAB8fnyInxdatW9GyZUuJkcR2vnxYlXzYgOLs7IykpCSMHj0au3btEuOF27VrJ3F76PV6ODg4PDIv1rYQaLVaGAwGGI1GREREoF27dqhUqRIEQRBdKizLomnTpjh69GiRVurg4GAYjUb4+PhAo9Fg6NChkmv379+P0aNHo1atWjJrLhWRr+rs7IwKFSogNjYWYWFhaNasGSZPnowTJ07g8OHDohHJvrm6umL27Nniby9atEgM9+zatasqrOUd48ePF+N8Bw8eLE4Iq9WKLVu2iJPUZiUuzkBjiyry9PREQkICXnrpJURFRaF9+/bYsmULcnJyltruv3r1agQHB0t2YJtwPbxb2YLreZ6HyWRCbGwsmjRpgqSkJPTr1w9ff/01du7cidGjR0On04k7vUajgdFoxI4dO4qc6AsWLEBSUhK8vLwQFRUFo9EoRh4dOHAAc+bMQb9+/VCvXj04OjpCq9VCp9OJz2l7Nttz6nQ6xMfHIz4+Hi1atMCiRYuwZs0amVV75MiRMqMTy7Jo1KgRzpw5IxqbUlNTwfM8nJycsGbNGlVgyyvOnTsHo9EIIkKlSpVEQ8bq1asRFBQErVYrMf48akfx9vZGdHQ0EhISULNmTTRv3hwrVqxQnGADBw5UDNi335HDw8ORmJiIwYMH47XXXkPPnj0xceJEHDhwAAUFBcEPn7ttAurj4wM3Nze4urpi48aNxU7wjRs3wsHBAV5eXnBzc0NYWBhOnz4tfmfz5s0YOHAgQkND4eHhAUdHRxgMBlEj0Ov1iImJQdWqVeHs7IyKFSti+PDhWLZsGa5cuVLkb1+4cAEvvfSSRCthGAY6nQ5Tp06F/fP5+PhAEASEhISowlpe0alTJ/A8D6PRiD59+mD+/PkIDw8vEU0Jz/NwdHSEl5cXTCYT3N3dkZqaitdffx1z5syRnfkexpw5c+Dv7y8JKNDpdHB0dERcXBwaNmyIbt264YsvvsDOnTvx66+/FjtRR40aBS8vL1SsWBH169eHt7c35s6d+8jJXVBQENy4cWPExcUhICAAsbGxOHDgAM6ePYvvv/8eqampqFKlCrRaLfR6vbiT6nQ6+Pn5wcPDAykpKRgyZAhGjRqFY8eOlVigvvrqK5hMJlnfRkZG4uzZs+J97NPvRowYoQoslTOmiKVLl+Ktt96inJwcqly5MnXs2JF2795Nu3fvpry8PFlS9sPQaDQUEhJCFStWpNu3b1ODBg2oRYsWZDabS8TUQEQ0Y8YMzJ49m86ePUsBAQEUHh5OUVFRFB4eTqGhoZSYmFiiMcnLy0v74osvZuj1ehIEgTZt2kT16tWj7t27S2hcisKKFSuwYsUKys7Opry8PKpevTrdvHmTzp8/T7/99hvpdDpycHCgwMBA4nmezpw5Q8HBwZSamkq3bt2ipKQkCg0Nfez5c+HCBQwYMIA2btwo6W+O46hXr140bdo0hug+jUxaWhqdOXOGQkJCaOHChSXuG1VYSzkuX76MAQMG0Jo1a4hhGBo2bBgR3Q+0P3nyJP3f//3fI4W1RYsW1Lp1a4qOjia9Xk//NKUrIyMD165dI3d3d/L19S2WLrQ45ObmjmMY5uLWrVtnaDQaat68eYnvc+XKFXz//fe0f/9+cnd3pyZNmpBOpxP5fvV6PRkMBvL09KQLFy5QZmYmJSYm/uNntceSJUvw9ttvU2ZmpviZLcVuyZIl1KhRI4aIaNiwYRg/fjyxLEvdunWj0aNHy1giVZRBzJo1C2azGTzPQ6/XIyQkBGazGXq9XuJ2IbuIIx8fH4SFhYnGo6fNWP80NYZ/8r1Lly5h3LhxmDdvXrHfv3nzZv7TfuZ27dqBYRhJvzMMgxo1asDud5eGhoaCYRj4+/tj7dq1qjpc1jF37lwEBQWB53lYLBYsXLgQEyZMwNy5c9GkSRPFaJuQkBBMmTIF6enpcHV1xQ8//FAmJ8rmzZsV46GfNU6ePAlHR0eZC8zR0RFTpkwRn2flypWiL7dTp04qBUxZx+jRo0VjzvDhw8WJsGnTJlSoUEEWCufs7Iy5c+fi+++/x5IlS9C1a1dcvXq1TArrwYMHZfHNzwsfffSRJEDE1v8vvfSSyGVFRGSLGzaZTFi8eLG6u5ZVHDt2DF5eXuA4DtWrVxctjlardenrr78uY3FgWVZM3Tp16hRWr15dpn19D7uDnidu3ryZn5SUJIv+cnBwkCyqu3fvFn3e8fHx6u5aVtGsWTMQEZydnSVEYKtXr4arq6ui+rtt2zYQ3fdjzpgx44lS1lQ8+rxtsVhkgRKRkZHYt2+f2O9Dhw6FTqeDIAhFZkepKMVYuHAhdDodeJ5Hs2bNJA775ORk2XlJo9FgyJAh4jVXrlzBd999p06MZ4js7OyMzp07KwaK2FOaHjlyBImJiWIQhZqVU4Zw6dIl1KxZU6THtD/rfPXVV7KwN4ZhZKlZJ0+eVBOhnwPWrFmDwMBAmcAaDAZJ2OTYsWPh4OAAlmXRrl27RwahqCglGD9+vBiA36lTJ4kA+vv7y1ZxvV6PsWPHSgTTPqJGxbNDfn5+/d69e0Ov18uycl566SVYrdYMovu+8uTkZHEBXrRokTo+pR0ZGRmoWrWqyGlkb+3s3r07lIjCXnrpJXUX/Rdx9OhRBAcHKzJY2C+iK1euhEajAcdxaNasGc6dO6eOWWmGLWeU53lMnDhRHMwffvgBSmUqNBrNI4PfVTx7fPrpp4ox2ZGRkRKOpweaEgwGA2bMmKGOW2leoW1J5VWrVrVPf1vaunVrmdVREAQ1b/IFQpUqVWSLqU6nk7AnXrt2TczKiY2NVeu9lla0atUKHMfBxcUFS5YsEQdxzpw5cHd3lwlrWFjYI7NbVDw/bNy4Ea6urrJxCg8Pl1C+TpgwQUzbs89JVlFKMHfuXJGm5NVXX4XVal1KdD/To3bt2jL1ymAwiMx8Kl4MFBQUBPfs2VOW98txHLp06YLc3Nz6RESnTp1CcnIyiAguLi7FJtureMFw4cIFREdHQxAEhIWFSaKOxo4dq2hprFevnrqrFoNdu3Zh/vz5ik2pasHTws6dO1GxYkWZa83R0RHLly8Xf3fWrFlwd3cHz/No0KCBOo6lBenp6dDr9dBqtRLi7czMzHyz2SwLgLBYLJg+fbo6wMUgLS2tyLKXTZo0eayyk4+L999/XxYKSkSIjY0VfzM7O3tc06ZNRc6rL774Qh3PFx1bt25FZGQkiAjBwcES5oJ27dopcig1adIEVqtVHdxi8MYbbxTJmtGoUaNiKVyeFMeOHcNLL72kyIg4atQoiSvH3d0dHMehVq1aIpeTihcQubm54/r06SO6aux9csuWLRPJuR9Wp1avXq0O6oPjQ1H/1qtXL+h0Ouh0OjHv93kJKxHRlClTZIWobQW27CPNunfvLhLLjRkzRh3XFxVr164ViyUlJycjOzs7jeg+Q37Dhg0VV2al+jTlEWPGjEHz5s2LzGfdv38/li5diiVLluDLL7+UBC08D2HNyclZWqdOHUVG/1dffVX87XPnzon1fSpWrIiMjAx1fF9ENGrUSNwtbdkyRESffPIJTCaTLN7Uz88Pz4L5oLRh6NChcHJyAsdxqFKlyiNzWq9evSopzvU8hJXofr6tjUfYfhx9fHwk8d4zZswQy2j2799fFdYXDfPnzxfZ8Hv16iUO0PHjx1G9enXZAPM8L0mTK6/48MMPodfrRQMOz/OIiooqNnTv2rVr/4qwEhH1799fUUNq1aqV+AzZ2dnjGjRoIPIm/1sJ9SoUcO7cOfj5+YkTzcZ6T0Q0YsQI6HQ6mWO9cePG5Tr+Nzs7O2P06NFiRbyHW0xMTJHVCX755RfExcWJ19apUwf79u3DtWvXZC0zMxNPM6n95MmTiI6OVixLac/mv2zZMvHdkpOTX1jOrHKHPn36gOM4mEwmfPDBB+KAHThwAAEBARJjCMuyapYGEU2ePBleXl5iXRyNRgNnZ2dJjdhq1arhp59+QnZ2dsb+/fsxffp0DBw4EKmpqXBxcRH71N3dHQ0aNECLFi0krWXLlmjbti26d++O4cOHY/369ZKqBP8UkyZNgqOjo+zsmpiYKO6umZmZ6Nq1K3Q6HTQaDT7//HN1d/23sWHDBgQEBIDneSQkJEj4elq1aqWYVN6pU6dy76qZO3euyI6h1WrRrl07zJ07F1FRURLi8cjISNSqVQuRkZFwdnYutnxjcU2v1yMoKAh169Z94iT+s2fPIiUlRaYtabVayWK9adMmhIWFQRAExMXFqerwv63K2WgsdTqdZPVcvHixYsEof39//Pzzz+qgEdHEiRPh4uKCB3Q3RHTfV+nr6/vE1dKLazqdDk2aNHkiipxZs2bB1dVVMdD/5MmT4n179+4tVhB4++231XH/t/DNN9/Aw8MDLMuiWrVq4kDcuHFDdq6x8dLaG59UED28y61btw5RUVHPVFhtJTBr1aqFPXv2FHkuPnLkCI4ePaoYHVVQUBD88ssvKxqb7BefCxcuiGUwo6KixKJbKp4jLl26hMaNG0MQBLi6umL79u0So9LDpRN5nkdoaKiaoFwErl+/juHDh8Pb2/uZCurDC2jt2rXxyy+/yMbEJmCCIKBFixaKVdi3bdsGs9ksu6+Dg4Okzs/MmTOh1+vB8zzefPPNp3JuVvGYBhLbANirNzt27EDFihVlKrBWq8WCBQtUQVWA1WpFly5dFH3Rz1JQ9Xo92rRpAyXKHB8fH/G6Zs2aFcnV/O6770pq1tp27pSUFEk1vKZNm4Lnebi5uakRa88TWVlZ4g5QsWJFiVGpf//+MqoWIkLz5s3VAVLAzZs38xs0aCAL5XvWTRAEdOnSpchzq01YiahYYc3KylJcnE0mEyZNmiRZxD08PCAIgqQsh4pnjM6dO4ulGidPnix2/JYtW+Dl5SVbZT09PdWzigLy8/Prd+7cudjK7c+iaTQaJCUl4caNG4pjcvHiRdHIZdsli7PkLliwQHGxqVSpkqTi+4ABA8Qz7ieffKLOh2eNdevWiepv/fr1cerUKbHTW7duLaMV1Wg06Nu3r3pOUYDNGvw8BZUeBDDYh4PacPLkSQwdOhSBgYGidsQwDHieR2BgIIYPH44TJ07Ivnf58mU0b95cZhnmOE7C/WyfG+vu7q54VlbxlHDt2jU0bdoUDMPAbDZj1qxZYmcvXLhQllTOsiyio6MlxicV92GfSvi8mz0drL0g1a9fH1qttthzc+3atSWULjYsXrwYAQEBMq3K29sbu3fvFq8fNmwYTCYTNBoN3nzzTfybJUPKNKZOnQoXFxfwPI+mTZvC3pL58EDZrIJDhw5VBVUB3bp1K1GFd3rIos6yrKTxPK/YlFRrm/vMPhyU6L57JSoqSrHcptIz1KhRQ8bCX1BQEGw7Hj3MKvEgW0f8rUqVKoFhGPj5+ZXZioD/Kn799VckJyeD53lotVrs379f7OS+ffsqDnRoaGiR56LyjD179sjipUvSDAYDkpOTMWrUKOzZs6dIFvzJkycrRjqxLGuLmpItHCURVHv1Nj11tdWAAAAgAElEQVQ9XXafffv2Kar1giBIkjbmzJkjPk9qaiqysrLUOfI0MX78eGi1Wmi1WgwcOBD26pwtf9F+MI1GI+bPn68OggJat25d4uAFV1dX1KpVCx9//HGJz/2ff/65ouCxLCuhYiEiOnHiBMLCwh7b7RMaGqrImfXee+/JvAE8zyMmJkbiY69Xrx54nofZbFbZ/J8mjh8/jtDQUHAch0qVKiEzMzOf6D6nUteuXRXrerZs2VIdAAWcPn1aFjCipKoKgoDk5GTMnDnzsXN+ixPWB6l1IhYtWlRk5k9xz8hxnGL188zMTFSqVEmWvOHg4CBL8vDx8RGJCpSCLlT8A3Tu3BlEBKPRKEmDWrx4MTw9PWWD6evrK1GTVfx/jB07tlhXjS15f8iQIYqWVxvOnDmD/fv3Y9euXZK2Y8cOpKenK6rBHMchKioKW7duFa/v378/TCbTPzJUFUVy98MPP4hFq+zfKyYmRmKF/uCDD6DVaqHT6fDxxx+r8+VJsXz5chiNRjHB2Ma4brMM208K246gGpWKRq1atRQFyeYicXZ2xsyZM1HUrvzhhx+icuXKCAgIgLe3N7y8vCTN09NTLAJGRQRDeHp6itebTKbH9vPa6t4U9ZxE98tqPHxfnufRq1cv5OTkpNlU8MTERHAcB2dnZ5Vg7UmQm5s7LjY2VrFU47x582SWP1tA/6FDh9ROV8D169fh6elZpKXWwcFBcYc5f/483nzzTQiCIOa/Pq+wxKKEVRCEIvmiiIg2b96smD1kMpkku+vkyZNFqpgHZ3kV/wRjxowRAyC6dOkiduTVq1dRoUIFxYGwDzFTIUVRge9kx55hH/5XUFAQPG/ePERERPzjPFZ6Rlk71apVK5ZKJi8vL23AgAEwGo2y3bVx48bi986ePYtGjRpBo9HAYrGUmoLZ/Iv0MAcOHEDPnj3pzp075OnpSa+//jotWLDAdu6ic+fOSa7nOI6qVKlC//nPf+idd94pNwK4ZcsWbNq06ZHXAaCpU6fSn3/+qfjver2e6tatSyEhIYztsyVLllz46KOPKDMz88WZpDxPDg4O1K5dOwoICGCKus7FxWXmvn37ZmzevJlOnDghfl5YWEg///wzTZ8+HX369GHCw8OZhQsX4uDBg3Tr1i2aN28enTt3DmFhYYy6vJcABQUFwe+99x6MRiMEQZCEjG3YsAEWi0W20hsMhlKzKj5NPFBbn7h5eXlhw4YNsD+CBAUFvTC7KdkxTnTs2BGXLl0q0Vh/9NFHilpBYGCgxPVjc2eZTCZMmTJF1c5Kil27dolZNQ/4aUU0bNhQsVRjkyZNymUHPy1h9fPzw969e8U+PHz48HMP8H+U6qvVatG8efPHciUVFBQEh4SEyKK1NBoNXn/9dfF9z5w5A0dHR3Ach2rVqr3wccMvjBr81VdfUXZ2Nun1epowYQK1adOGiO4nEX/wwQcE/P9+ZBiGXFxc6LPPPqP169eXO2HVarVkNpuf+D7Ozs7E87ykX52dnSV9/W+A4zhycHCgoKAg6ty5M3Xv3p1ZvXp1ib9vNpsvrl27ltq3b09//PGH+Pm9e/do8+bNtHbtWjRr1oyJiIhgPvroI4wePZoOHTpEK1asUM+sj8KKFSvQpUsXYlmWWrVqRW3atGGI7ocb9u7dm3JycmRnmLfeeovCw8PL5RkjOTmZLBbLE9/HYDCQr6+v+Le3t3fBxIkTzSzL/mvvBoAcHBwoNDSUqlSpwmzduvUf3adZs2ZM586d8e2331JhYSEBoHv37tH169dpyZIlZLVaMzw9PRNee+01WrduHe3bt49mzpxJhw4dQnx8vHp2VcKNGzcQFRUFnucRFhaGjRs3isv6+PHjJZY9WxRLUlKSStWi4pE4cOAAIiIiZEH+7u7uMpegxWIBz/N45ZVX1HlVFAYNGiQG6tuXPbhw4QKCg4NlESkWiwVff/212qEqSoRRo0bJ4oYZhrHVRRpn2zDatm0LQRCg0+kwb948dX49jD179sDPz0+karFPgUpLS1M0OLRq1UrNqlFRYhw6dAg1atSQCawgCJLQxRUrVsDf3x+CIKBixYq4fv26OsdsyMvLS3vzzTeh1WohCAKGDx8uds7PP/8sC9RnGAZeXl5YtmyZ2okqHguTJ0+WBYawLAsfHx8JwVrXrl2h0WhgMpkkNWDLPZYvX47AwEBoNBrEx8eL5FjXr19HUlKSzE/G8zxee+01tQNVPDauX7+OlJQURfeQfenIQ4cOie7DuLg4WcJ8uURmZiZsZS50Op3EMT9hwgQYDAZZHKqrq6uEe6m8YMSIEahXr94jW0pKCl555RUx6UGFFOvXr4dGo5H5kd3c3PD9999L5h/HcSKbf7mngFmyZIl4hrCP/z169CiqVaumGDBeXosMtWnTpsRBBCaTSVJGQoUUr732mixQwhY3bG8HSUhIAM/zcHFxwb59+8pvf2ZnZ2fExMRAEAQEBQVJ6CaHDh0Kg8Eg68yaNWuW2w5ThfXpqsM2g6Z9M5vN+PLLL8V+W7NmDZydnUFE5duVM3DgQPA8DwcHB4wYMUJCyBweHi7L9nd3dy/XRiVVWJ++sUmv18vCV5OTk8Vj1s2bN5fadmGNRoOFCxeWvz7dunUr3NzcwHEcatasKSFjfu2112RJ5RqNBt26dSvXBZBVYX26uHDhAh6ONWcYBgaDAWPGjBH7buPGjYiMjATP8wgPD5dYjcs8CgoKgps3bw6e52GxWCRZDps2bZLx/zIMg/DwcGzatKlcTz4lYbVFctnYAW0sCs7OzoqEYkVhxYoVkjIk5QWzZ8+Gp6en5PzKMAw8PT0lub1vv/02dDodeJ7HW2+9VX76ad68eXB3dwfLsqhevbrkxSMiIhSpQNRSjcrC6ubmhlGjRmHz5s3YsmWL2B6H2HzatGngeR4pKSnlzsp+8+bN/FatWkGj0cj4ouyZI44fPw7b3AwLC8OWLVvKfj+dPXsWTZo0Ac/zcHR0xMqVK8WXHj16tGIJhPDw8HK56pdEWH18fP4xUXV+fn79Tz/9VLKrNG3atNz19fr16+Hl5aV4nLC3kUycOBEajUZMr7NarWW7nyZPngyTySQLbNi/fz/CwsJkvi9BEPDZZ5+pZ6+nLKz5+fn1x40bZyPdlhhYGjZs+FgqdFlAjx49xOOEfX/UrFkT58+fBxFRTk5Omo1wzsfHp2wbO3Nzc8fZuJOCg4MlZ4LevXvLVBEiQkpKSpHM76qw/nNhnTBhQrF8vdWrV8exY8fKjcBeuXIFQUFBMt+ryWSSGJt2794tJqm//PLLZXduLl68GBzHQRAESWDDunXrEBQUJDOhOzg4SNgLVGF9OsI6bdo0xYXxYcNVfHx8sdzBZQ3z589XrO1bpUoVCQ/1W2+9BY7jwHGcpDja8wT7HFYvYhiGnJycKCgoSPz8+vXrVFBQILvez8+PXF1dVSl9gMLCQtlnAB6LzeGTTz5B//796c6dO8VeB4AOHz5MAwcOpPKyw1aoUIEMBoPkM4Zh6ObNm2S1WsXPKlasSAzDEAA6dOjQv/Ksz5wponnz5vTJJ59QdnY2TZ06Vfy8QYMGtHr1atqwYYM48QoLC+nUqVP0xRdflKkJkZeXl3blypUZFy5coOzsbLp9+zbduXNHURAfFtTly5fLPv/zzz9p06ZNNG/ePHh6elJQUBC5urr2cHFxmfnwEWTWrFmDPvzwQ7p3716JnhUA/fTTTzR48GA6evQoKlWqVKZZE0aOHEm3b9+WfKbX66lJkyaUmJj4PdH9Qs/NmzcnIqLw8HDq378/ffXVV2WzQ/r16ycmmNuHdS1atAgeHh6yA77ZbC4TZvJDhw5hyJAhaNu2LapWrQqz2SzzjxbXiiPWtiVBBAQEoHbt2mjTpg0GDBiAtWvXwmq1Ijc3d9yYMWNkxiSys7j7+fnB2dlZ8Td4nsfLL79cpnfXGTNmyEjjiQghISGSjJvevXuDZVno9XpMnDixbGscu3btQkxMDHieh7u7u8TI1Lp1a8V0uFq1apXaTjl8+DA6dOiAoKAgGAyG50KWzTAMtFotvLy8UKFCBVSrVq1Icm8iQkREBI4dO4axY8fC0dFRMRqqLDMmnD9/vshKdvY0uD/99JPYP3Xr1i0fPukPP/xQTCh/4403xBf+5ZdfFCucGY1GTJs2rVR1jNVqtcU7v7CN4zjExMRI6pMOGTJELBTFMAxcXFwktU3LIgYMGCAjOOB53lZ+Q0RycjIEQYCbm1uxdXbKFE6cOIGqVauCYRj4+vpi3bp1sDs3KFavrlmzZqnx/W3cuBHVq1d/7Mriz1tQExMTJZlONgwaNAhGoxHu7u745JNPyvSk/PnnnxEZGSnTeBwcHLB8+XLx3adPnw4XFxfwPI8WLVo8dhnMUo1p06bBYDBAo9Ggffv2Yn3M7OzstBo1asgC+Z2dnUsFvcasWbMQFRX1QhFkKzWtVosWLVooCivR/dKQn376aZkW1Nzc3HE9evSQuGtssdXt27cX3/3kyZOoU6cOBEGAk5NT+YtRz8vLS0tJSQHHcXB3d5dUKV+yZAlMJpNsd42MjMTBgwefaUd98cUXqF+/vqQ1aNCgRGe2zz77DD4+Pi+8oNqfa+Pi4rB06dJy6ctet24d3NzcZP794OBgSaW50aNHw2AwQBAE9OnTp3z6/Y8fPy7urnXr1hVZ5G7cuIEOHToo1tfs27fvM+2st99+W2YRZFkWw4YNw6N2VEdHx0cGG7yIzdHREQMGDCh3kzAlJUVxjr377ruwP7I9KOEiO8OWO7zzzjviBLePalq7dq1iVJPBYJDQlL4Iwmq1WlG/fn0x5rm0CSs9qP3StWvXcsPbNGfOHNlYCYKAhIQECX1Lz549wfM8DAZD+TEqFYVTp04hLi4ODMMgMDBQYg7v0aMHtFqtKDy280TNmjWRm5s77kXaWfPy8tLefffdUqMGF6UWp6amlnmXxKlTp+Dn56doVBo9erT47lu2bIHBYADP82jWrJnKUU10PxPHyckJPM9LDvaHDx9GQECAou/1WTmk/6mw2lsNQ0ND/9XK4E/SBEFA8+bNy/TEfOAulLVq1aqJR7GcnJy0atWqieqvfYmNco3z58+jYcOGopprTwc5fvx4mbAyDIMKFSrg8OHDeBbCqrQ42BOPPwpTp06Fh4dHqVWJOY5DnTp1ymRGyapVq2xnT8lirNFosGbNGsm802q10Gg06Ny5M3JycpaqkvoAX3/9NSwWCxiGQVJSErKzs9Ns/xYdHa24A/Tr1++pCmtOTs7Srl27KibA9+3b97FU7549e5ZKY5P9AmVPDVsWYLVa0aZNG0UK0o4dO0o0utjYWAiCgMDAQGzevFndVe2Rn59f/5VXXoEgCHBxcZHwMq1Zswaurq4y32tkZKSEFPyfYt++fRgxYgQCAwOLVF8ZhkFERATGjBlToh09MzMTMTExpVZYiQgWi6VM+VptdEIPv2dAQICkePK7774LvV4PlmXLF9/S42DPnj1wdnYWjUj2qVlvvvmm4orYrVu3fxxNkp2dnTFy5EhER0crsgSQQsA8y7KoXLlyiSJ7Vq1aBY1GU2rPrwzDICoqqkwkUly+fBlKrhqdTidJLt+6dSsiIiJEOiG1qkExeP/998VOtOcStnWi0uq/YsWKx+7QixcvomPHjpKar4/TnJyc0Ldv30fy8ChNkNIkrDzPo3nz5qX+zDZp0iRZKRZbuUd7ytbXXnsNWq0Wer1eNSqVBLasHE9PT5w9e1bssPfee0+RpjQ+Pv6xOjUzMxOdOnV6YgOQTqfD4MGDi/3tuXPnllphJTsf7IwZM0rtxM3Ozs54OD1QiQb3559/FulGH7ByqHgU5s+fL7pyUlNTxU47cuQIqlSpIguU4DgO48aNK3HnfvzxxzAajU+snjIMAzc3N3z77bdF/vYvv/wCNze3x7qvg4MDnJyc4OzsXGRzcnKC0WiEVqtVzMN82tZhT0/PUkuw3rFjR0ULf8OGDSUuqsqVK4ubxONQuf4b4F+UB6lbty41aNCAVq1aRcuXL6eVK1eiZcuWTOXKlZlJkybh5MmT9Pfff1NhYaHIsDB58mQ6duwY4uLiimUz2Lt3Lzp16iRjBPgnAEA5OTk0bdo0unHjBnx8fGS/7ejoSBUqVKCcnJwS37d///4UHBxMDFP0q9y7d48KCgrot99+o9u3b9PNmzfp1KlTdPnyZbp9+zbdvXv3qY3HvXv3yGq10sSJE0udoK5cuRJt27aVsWMYjUbq27cv2cZs5MiRGD58OGm1Wmrfvj3FxsaGqNtmCbF8+XIEBASAZVnEx8fjypUrNmd1/aJqtpbE1dCvX7+nrpYKglBkoP/NmzfzO3To8Fj327179z9a1ffv349vvvkGI0aMQHx8PPR6PXieF9konvQ9/f39SxWn8KVLl9CoUSOZJsayrIQG98CBAwgKChLze3fu3KmqwI+LLl26gOM4aLVaSVDC/v37Fauhe3t7P5LL1ebLfZrCyrIsatSoofi7+fn59R9UE3jmwvqwAW3z5s2oXbs2DAbDU1mgDAYDPvjgg1IzkadMmSJWgLNX6X19fSUqfbdu3aDRaGA0Gh8r+EWFHfbt2wdvb2/wPI+4uDhJgLWNZ9h+EjIMg3bt2omV05V262dpiLFnXLChoKAg+IGv7rkK68Oqf61atUS+2ydZrGrVqoWLFy++8BP66NGjSExMVNSCpk+fLj7/ihUrxNKP4eHh5Sup/Glj6NCh0Gg00Gq1SE9PFzv51KlTsiRvhmFgsVgwZ84cxcn0zjvvPFNhXb9+/QsprDZ8/vnniIuLeyKB9fb2LhX5r6NHj5ZZ+1mWRUpKiriY37hxA6mpqWBZFlqttlhDoYoSwGq12lwzCAgIkIR+jR8/XpGzKTExUXF3fWBZfmZtypQpyMnJWZqfn1/f1i5fvowePXo81n02bNggu499y8vLS8vLy0v7J/158OBBpKWlwWQy/SPVmOf5F14VPnToEEJCQmQLube3t6S+6rx580SWSfsiVCqeAKtXr4bRaIQgCBJXzqlTp1C3bl2ZsUkQBIwcOVLW+S1btnymwhoeHo46depIWlJSkixw/FGtcuXKsvsotXr16qFJkyZIT0/Hrl27Shx4n5eXlzZu3Di4ubkpMtDTI9xVzZo1K/Ko8SKgXbt2MqMax3FITU2F1WrNsF1XuXJlcBwHf39/HDp0SBXWp4GCgoLgbt26QRAEGAwGSbmIr776SsaHy3EcjEajJKCCiCgtLa1UBydQMXmoTk5OcHV1Rc+ePUt8ppwwYUKRXMLF/V5oaGiR3E3/NpYtWwadTid7bi8vL0kc+QcffACO46DRaBQXdhVPgM2bN8Pf3x8syyIgIABWq1UMf2vQoIHixGrVqpVkEB5E4ZT5ptfrkZaWJqnPUhQGDBgAnU5XYj5jWwiiPSPli4KsrCxUrFhRdlbVarUSyttjx46JLq3q1auXq3o+z213TU9PFzP333vvPUlGv4ODg8xo4uzsjEWLFonXXbx4EQaDocwLq43B32w2Y8SIEcX6RnNzc8c1bNjwsUIvWZZ9ISlKR44cKXFT2ZhFgoKCRC0rLy8v2KYmm83mMk+1+q/h4MGDIpv/wwx0AwYMUDy7NmzYEOfOnROva9q0aamP1aXH9AHXrVu32GSHEydOPLY63LNnzxdqku/bt0+kB7J/d61Wi6+//lp81vnz58PLyws8z6N+/fpqVs2zxNixY6HT6aDVatGtWzfk5uYGExFdv34dUVFRkjhZhmHg4OAgyclct26d4pmmLDeO4xAUFCSpMv8wevbs+ViRTk2aNHlmPFj/ROsaOHCgzFjGcRyaNWsmvvOZM2fQqFEj0aZhz0ii4hkhLCxMrD5tz5o+Z84cMWnYfnVNSEgQ06CsViu6du1arnZXWz/4+Pjg9OnTihN027Ztj2UZZlkWgiCUqKhWcc3b2/uJKy1s374dnp6eimmM9q6+6dOni5FvDzwDKp41NmzYIBYIatGihUhydfXqVbRo0ULRWDJ06FBxcDIyMmArN1+eBLa4SXru3DmEhIQ890R5b2/vJ2ZTtAU20EPpi71790Z2dvY4ovvZT/Hx8WINm/Pnz6vC+rzw2muvieqM/Znk22+/VaQD9fb2loQr/vjjj6hUqZIY2F1a2Rwet2m1WsVE8qtXr6J69eqlTliXLl0KnU4nSyqPjo7G1q1bJQW3bMRoZb5U44uGAwcOiGfUBzGd4x5YN4M7duwoC/S3hZo9bLB65ZVXZDHGZV0dVtpVrl27htq1a5cqYc3KykJISIjigvSAcUScKzbupeTkZEmZURXP0dhkOzc9yGwhIqIdO3bAw8NDcaLOnj1bNlALFiyAr68vOI4TuZjK6m7LsqwsWKS0Cus777wjczlpNBoEBwdLIqxq1qwpurIWLFhQJgSVL20P3LRpU1q3bh3t3r2b5s+fT9u2bUOdOnWY2rVrMwMGDMCUKVMI+P9jU1hYSFOmTKGrV6/C399fzOzu0qULQ0Q0c+ZMfP/995Sbm0u3bt2iu3fvSr5fFsCyLPG8fKh5nicPDw/y9/d/ru/s4eFBgiA89vd27NiBLl26yJ6VZVkaNmwY2cZ31qxZ6NevH3EcR/Xr16eUlBRShfVfQGxsLDNlyhT8+uuv9N///pcmT55MWVlZGV5eXgnvvvsu/fjjj3TmzBkJS8CVK1do1qxZivdLS0tjHt5typo2AoDsFyobvLy8GKvVijt37hTLUPG0wTAM+fr6PtYP5ubmjnv33Xfpxo0bMgaIunXrUrdu3Rii+66azp07071798jDw4M6depESmweKp4TMjMz0aBBA/A8Dw8PD4mau2TJElnEEsuyiImJwY4dO9RzSynFsmXL4OfnJzMqeXt7S0Ishw8fLiaAPIgLV/Fvw56Vzj5iKScnp367du0U2fpU8ubSiRs3bqBFixairYLsUvfsjUp79uyBrZKD2WxWI5VeJLz55puicWjatGmSuGEfHx9ZGJrZbMbevXvVASxlWLx4sSL/VkJCAjIyMsTxfOutt8DzPDQaDb788kt1nF80dTg4OBgsyyI6OloSqfPWW29JfHG2QPfGjRurg1iKcP36dVSoUEHmZnN0dJRQ0e7cuRMuLi7geR516tRRx/hFxNSpU8Xq4/bl5Pfs2YOoqChZOB3P80VSwKh48fBgTGUZRrVr15b4TuvVqwcigqenZ7Hx0Cr+RVy8eBEvv/wyOI6Do6MjNm3aJDE2KLH5BwQE4MyZM+qAvuD48ccfYTabZYutXq/H/PnzYb9gazQaCIKA119/XSVAe5Exf/58kQH/4bIagYGBikECvXv3VoX1BUZBQUHwyy+/LNOMNBqN5Chz9uxZBAYGguM4VKhQAT/++KM6ri8ycnJylrZt2xZarRaOjo6S9LiVK1cqcuiGhIQoMhOqeDEwe/ZsxXxbi8Uiicbq168fBEF4JrV7VTxDlcnLywscx+Gll16SlI7s2LGjLERNEAR06dJFVZleQJw9e1bGqs8wDARBkFQZ/Omnn0TjU0REhKQynIoXHA9WVhgMBnz44YcSY5NS8LeHh8cj2fxVPH9MmjQJjo6OMtdbzZo1xV01MzMT3bt3h1arhUajwVdffaWOY2lCbm7uOD8/P/A8j9DQUBw4cEAcwA8//BBarVZGVdmoUaNSX4e0LOHy5csIDQ2VCaqTkxNmzpwpjueaNWtgNpvB8zwekOepKG349ttvodFowPO8hDPo0KFDstxNG/PBF198oQ72C4JevXrJ7Au24s72WTXJyckQBAFGoxGHDx9Wx680IicnZ2nz5s1FvuFdu3aJAzlhwgRFRkRvb+9SUculrGPnzp2KTB7e3t4S7qQHiysEQcDbb7+tjltpxurVq0W+4YSEBOTk5NQnup9RU6dOHdnKzXEcunXrpg76v4isrCzUq1dPsVRjx44dxbE5ceKEyAoSExODPXv2qONWmlFQUBDcs2dP0QI8ZswYyVlHo9HI/K4uLi5q5Mu/iE8++UTk2LJfRC0WC3755RdxXLp27Qqe5+Hk5IRRo0ap41UWsH37dlSoUAEcxyE8PFwS8N2pUydZVTVbPRer1fqvTYAzZ85g7NixuHTpUrmahEePHkW1atVkxxOO4zBp0iSxL3744Qd4enqCYRjEx8erBGhlCQMHDhRN+/YRS5mZmfkeHh4yddjNzQ0Pym08d5w6dQpOTk6icSw+Ph5LliyRFAAuqxg2bJgsUolhGFSrVk18d6vVmtGyZUswDKO6asoiLl26hMjISDFiyb5Wy8SJExWJv2vXrv3c44azsrKQkpIiC9zQ6/V44403XujqbU+KXbt2ITIyUqbluLm5SYxKs2fPhqenJwRBQP369VVBLYtYsmSJuFt17twZ2dnZaTaVs27duooFjcaPH1/iyfA0aGA+/fRTMZHeNlkZhkFMTAx69+5dpi3VaWlpMg2HZVl06dJFLNV48eJFJCUlgeM4uLq6qq6asozU1FRwHAcnJydJ6cgZM2aIdJX2E8Xb2xtXrlx55ITYv3+/SDb+T5GTk7PUVm/WpgraWBbj4+Ml4XVlDT/++CNMJpNMuwkODsbatWslBbT1ej04jnvhizqreAoGDIvFAoZhULFiRXGwc3Nzg5s2bapIxfmAGqZIZGdnZzwNd09OTs7SlJQUODk5oXHjxqIWEBYWBh8fH0kUVllDeHi4bFfVarV4/fXXYdc/aSaTCRzHoVKlSuXO+FbuUFBQEDxo0CDodDpZId01a9bAxcVFJrA8zxfpysnOzs7o06cPPv/886cycTIzM5GTk7O0f//+qFevHjw9PeHh4YG+ffuW2Yk5btw4sV6qveofEhIiUXPbt28PjuPg7Owsoe5RUYZx8OBBJCQkQBAEuLu7SxjxbGU5HlaHk5KSFFfyadOmITIyEmvWrHnqkycvLy9t0KBBaNSoUZmdmEeOHEF4eLjMTaPVaoE12aQAABPhSURBVCVlLpYuXQq9Xg+tVotmzZqprpryhI8//lgM/raPirl06RJ8fX0ljPwMw8DR0VFmbDp58iQSExPRqFEjrFu3TpHp/klx4sQJSSDAv4UnPY8Xhb59+8pKnfA8j+TkZPH3Lly4gLp164JlWXh6euKbb75RBbU8wWq1Ii4uDjzPw8fHB4sXLxYnwNdffy2jurSVtLftwpmZmbBVYjebzRgwYMC/GkTxrGFPnfK0sG7dOgQEBCjWqrHXdiZOnAij0QgiQvPmzVVBLY9YsmSJyMvUokUL0eprq6j2uCUhtVotEhIS8M033+D06dPIz8+vX9JnycrKwurVq9GlSxcMHDgQw4YNw8aNG7Fjxw4MGzYMcXFxcHV1hclkkuxENot127ZtMX36dBw7dgy//PIL7N1Iubm546xWK44fP46xY8ciMTERrq6ucHNzQ40aNWA0GhEXF4cWLVrg1VdfRVhYGCpVqgSTyQR3d3c0a9YMDRo0QF5eXtqTqPSXLl3CsWPH8P333+Prr7+WxWYzDAOdTodXX31VPHIcPnwYiYmJYlihffRZeUa5LCvwyiuvYP369WQymejtt9+moKAgOnHiBK1atYouXLhA9+7dK3HtF47jxP/neZ66du1KjRs3plq1ah1yd3dPKOp7165dwzvvvEPLly+/PxAMQwzDUHR0NLm6utKRI0fo1q1bZLFYKDc3V/JMDMMQy7LEMAwBIEdHR/rrr78oJiaG2rdvT3/++SdVrVqVfHx86OzZs5Sbm0u7du2iW7du0bVr1+jXX3+lO3fuKNaMIbpfboNlWfLz86P+/fuTt7c3Va1alQIDAx85XzIzM7Fv3z6yWq20bds22rlzJ+Xl5VFhYSEBIIZhZO8SERFBvXr1ooCAAKpSpQrNmjWLxo4dSyzL0tChQ2nYsGFq+YvyimPHjiEoKAgajQYuLi4YMWIEpk6dik8//VQxkuhxm4uLC4YNG4asrKwiJb5t27YytVuv16Nnz5749NNPERYWBqPRCD8/v8euTu7i4oJ+/frh8OHD+Pvvv/H777/j5MmTWLhwIbp06QIXF5fHeh9HR0c0adIEw4cPR3Z2dkZR77R69Wq0b98eLi4uJdZQjEYjhgwZIvbT/v374efnByJCYmJimT5mqHgMY5Ot3OPQoUNx5coVTJw4EaNHj4avr+8jJxnDMGBZVow91mg0EuOUs7Mz0tPTFdXIbdu2yQRQEAR4enpizpw5yMjIwI8//ohNmzZh5MiRcHNze6yyjAzDQKvVokqVKli3bh1u3bqFS5cuoWvXrrBYLNDr9WL62cMLRnH31Ol0iI2Nxc6dO2UCNH36dLGEptL9WJYV+9vWBEFATEyMhC+refPm4HkeRqNREm6oohzj9OnTqF69uigo9lbdPn36PLLQskajgdFohL+/PypWrAhHR0fJjmyr0G5vNLGhWbNmst2b53m0adNGdu2wYcPg7u6uGJJnKx1S1DNyHIfIyEisX78eubm54y5fvozDhw/j7NmzOHjwID777DPUqVPnsTUJs9mMjz/+WHzWzZs3S8Ili+ovnU4Ho9EIR0dHWCwWxMXFIS0tDbt37wYR0XfffQee5yEIAjp06FAukhhUlBDTp0+H2WyGIAgSi+P58+cREhKiqMqxLAs3NzfMnTsX9hbOyMhImeHEaDRKkgeIiL755htZ3qZNAGbNmiWbnHPmzJHsfjqdDqGhofjss89w4MABTJo0CU2bNkVMTAyMRqPirlZUrPPBgwdhH0UkCAJ0Oh3CwsKQkpKC2rVrIzIyEnq9XnbfiIgIbN68GURE6enpsFgssoXDxtYRGxuL4cOHKy5cdmfdjOjoaAiCgMDAQElYqAoVdOXKFTRt2hSCIMDJyUlSOnLu3LkyVdXmuO/WrRsyMzNFq+/evXvRqFEjUbg5jgPP86hVq5akkpnVakWbNm0ki4CtBk+tWrVk2T7Z2dkZVapUkQiKk5MTevfuLVEdbQuPm5ub6Cu2qblubm746KOPFCe+rbCX7f62CuLvv/++mOmzf/9+9O3bF+7u7pLncHR0FAMYunfvjpCQEGg0GonA2opENWjQAJMnT8ahQ4eKFMChQ4fCYDBAr9ejR48ej2VVV1FOsHz5cjFQIiUlRaION2zYUOamiYyMxLfffiteM3LkSFSqVElyZrVYLGjbtq3Ej0t0P7QxKChItgBERUUhPT1dNpE///xz2YLRvn17WeRUz549ERMTA51OJzkPenh4IDk5WdH1sWPHDlgsFtn7VapUCRs2bJBcn5ubO65Hjx4Shg2O41ClShWcO3cOu3btQp06dYo1hjk4OOCll17CJ598InuWnTt3Ijo6GgzDwMfHB0ePHlV3VRXK6NChg8iUN2HCBHGixMTEyCZzamoqjh8/jg4dOsDX11ekN7XtIi4uLqhbty62bNkimXD5+fn1+/Xrp8j/VKNGDZmAEBE5OTmJCwDLsuB5HpUqVUJmZuY4q9VaPy0tDd7e3uB5Xtz1DQaD6J+tXbs2Fi1apDjxk5OTZWdMo9GoeG4mIpoyZYpEfWcYBuHh4Thx4gRsRrPXX38dFStWFJMRHj4WMAwDvV6PevXqKVb802g0krOwChUyXL9+Hc7OzuJuceTIEYwaNUp2ZrUJxMOT0XY+jYiIwNSpU7F69WrZhNuzZ48scodhGISFhSnuqsuXL5eonRqNBp06dUJ6ejqGDx8uGrRsaqwgCHB1dUVERATc3NzQq1evIilWJ0yYAJ1OJz6/zSocGRlZ5LlyyJAhEuFmWRaxsbGSeN2rV68iPT0d7du3F11jNiF92Jjm4eGBvXv3YsOGDfD29oYgCJKMKBUqioQtAVyj0WDAgAGIj48vsa+QZVmEhITglVdeKTK/9eHJbjMWNW7cWHb+vHnzZv6DAltic3V1VTRM2dRuZ2dnxMfHIyUlBR988IHiTk1ElJGRgdjYWNmOGhoaimnTpimeFS9evIgmTZpIhE4QBCQmJipWF79+/TrWrFmDuLg4mM1mODg4FBn9VbVqVfEdVq1apQqrikfj5s2b+baACAcHhyL9hVSED1Kj0aBixYro2rUrpkyZIpl0VqsVoaGh4k5o+46Liwt69+6Nh9kmpk6dKivKZHPVPLxDcRyHkJAQJCcnY8KECaJaWhTee+89ifDYfMWenp5FJtwvWLAAD6vkYWFh6N+/f5GBHzk5OUvnzp2LNm3awMvLS6YWkx3VKMdxkhxWFSoeie+++05WD/SfNDc3N/Tu3Vu0qM6ePVs0/BgMBjAMA4PBgKFDh0rObtnZ2RnDhg0T1cJH/U5sbCwGDRqEnj17Yu7cubhx40axE37Hjh2IjIyUGIps9U6HDh2q+N3NmzfLjGJeXl5o06ZNic6XFy5cwNdff40KFSoo+mEZhkGFChVkZ3wVKorEwYMHERsbq7ib2gIcDAYDjEYjHBwcRJVZo9EoqssMwyA9PR05OTlLfXx8xAAGm6vGYrFgyZIl9owISx/UbClx0+l06NSpU4kn+bvvvivZsW2RTqmpqYrq+4Nkb0k/cBwHHx8fDB48uMTEcrZE86KOEEpndhUqZDh+/DjWrl2Ll19+GQkJCTCbzTKmvcDAQBw/flw2oY4ePYoBAwbA399fMRSxcePG+PTTT8X6oTbDlCAISPl/7d1ZTFNbFwfwP23PaUubDtS2Kg4MghUFRRBSh8gVDaCI0RpAJb6gNZCoCWqMiSY8GANxSvTBOEQxJhpHIKDGIWqIcSSCQ4AoVAUrEUpBVKiUsu7D/Xo+uBRE/R5Mvv1LGl7Kabt7Vvc+e6+zdmKiEKz19fVUVlYmpDl6J2X6r5n6mqiRyWQDlpGGU11dTdOmTRswDJfL5RQaGkpFRUUDjnH//n1KT08ftGs8x3GkVCrp8OHDPhM4/q2lpaVy7969Q7aPWCymsLAwtk8uMzSHw1EA/JMUUVRURNevX6empiaqqKgQCoP3n+UdrkiX3W4v+M9O3AOGlhqNhpKTk4VbvWQymTC0lclkdPLkSbLZbPTkyRM6ePAgbdu2jTIyMgb0YFOnThUmYbKzs2nChAk+g7b/7mpD2bNnj7DthPc96nQ6Wrt2LdXW1lJ9fT0dOHCA8vLyKDg42Gcao7+/PwUGBtKuXbt+eOtcaWkp5ebmDlrL9b52SEgIpaWlUV5eHgtU5uft37+fIiMjhWwdkUhE06dPH3I/lStXrlBOTo5wk3T/HmjSpElksVhIr9cTx3EUExNDHMeRWCymxYsXC4kN7969E3JgrVarMLTmeZ7i4uLIZDIJe8jevXuXEhMThfRD7yM8PPyHJWasVispFAohCL3LUDNmzCCLxUIJCQnEcdygXtw7EtBoNGQ2m+n8+fPk/bHzpby8nDIyMoS9hnxV2TcYDLRs2TJatGgRPX36lAUr8/MyMzMpJSWFgoKChN5w69atg06m27dvU2pqKhkMBp8J7JGRkXTkyBHKysoilUpFU6ZMoXHjxpFSqSS1Wk2bN2/2eYLq9XrS6/Wk0+lo/vz5NHv2bNq9e/eA59psNlqxYoWQ0ugNutTU1CFLzHz8+JEWL148IMfYm+Xk7fGHuqbkeZ4mT55MVqt12E2gjh07RiaTyWfxuX9fI6tUKjKbzXT58mUWqMyvOXPmDFksFjIajcRxHIWEhNC1a9fIZrNRdXU1efNXMczyjdFopMrKSrpz5w4lJiaSVColpVJJCoWCdDodhYeH05kzZ3zeXSOTyUir1QrVDS0WC1VVVQ167suXL2np0qVkMBiE2WuJRDIgYd/hcBQ0NjZScXExaTSaHy49icVi4nmetFotqdVqUigUZDQaafXq1YNuRmhra7M2NDTQ2bNnKTY2Vqhk4Wuizfuj513aysvLE24AYH6OhDXBf/E8j4yMDNTW1qK1tRU8z+PcuXO4du0aOjs7hWoH/XkrPEilUsyaNQsbN25ER0cH2tvbUVdXhzFjxsBut0MsFqOrqwsrV65EampqaP9j1NTUkNlsFo63Zs0aSKVSREREIDo6elCVhMjISL+HDx/S+vXr0dzcDI7jQES4dOkSysrKSK1WY8eOHaitrcWzZ8/gcrkgkUjQ29srvF8vIgLP8xg1ahQ6OjqwYMECGAwGcByH4OBgLF26FJMmTfJra2uzVlZWHnU6ndiyZQuKi4vhcrmg0WhgMBjQ2NgoHLf/31GjRkGv10OtViM3NxezZs1CWFgYq/zAgvX3g7Wmpgbd3d3o6+tDXV0d6urqhv0fmUyG2NhYxMXFIS0tDcHBwVCpVCgoKMCXL1+watUqnD59GjqdDvHx8cjOzoZWq7X1P8aFCxfw/ft3JCUlweVyITMzEwEBAQgNDR3ypDabzX47d+6kQ4cOQaFQQKFQoLq6GgcOHMCWLVvQ29uLd+/eoa+vDxKJBDzP4+vXrxCJRJBKpdBqtVAoFLDZbFAoFIiKioJYLEZycjJiY2MxduzYdpfLpa2ursb169epqKgIR44cwfv37yESiaBQKDBlyhT09PSA53l4PB709fUB+Kc8jEQigUajgdlshsViwbRp0zBjxgwWpL/h/7rx7HY7nTt3DiUlJXC5XHA6nejo6EB3dzfcbrfQQ3hPRLFYLNQ/8ng8CA4ORnd3N+Lj45Gfn4+oqCg/AHjz5g1lZWUhKCgIJpMJ3759g8FgQEZGBiZOnDigzRsbGykrKwtGoxHR0dFISUnx2Zv68unTJ2dhYaFWJpOB53k0NDTg5s2bWL58OTweD65evYrOzk50d3dDJBIJNZDEYjGUSiWio6PhdDqRl5eHmTNnQqlUYvz48QNeu6SkhPbt2weNRgO1Wo3Jkyfj5MmTaG1thb+/P1QqlTCS8PPzA8dx4HkeqampSEhIQFhYGP766y8WpMyvaWhooOjoaGHts/+EiHfzo71799K8efOEGVLvLK9Go6Hly5fTxo0bqby83GcywZ07dyg/P58cDgfduHFj2OuzixcvktlspufPn/9W0fDnz5/TpUuXaPr06cLn8j68E0hGo5GCgoIoKiqKHj16RCP9QThx4gTNnTuX5HI5yWQymjlzJmVmZtLo0aOFChBSqZRMJhNbM2U96++prKykt2/f4tixY6ioqIDH4wHHcdDpdOjs7ERvby96enrAcRzcbrdwvSWVSiGRSODxeJCWloYNGzbg+PHjmDhxIjZt2jRk9cLt27fTunXr0N7ejgkTJmD06NFDtnNhYSHFxMRALpdjzpw5I/4+HA5HQU1NzfYHDx7AbrejqqpK6DldLhfsdjuSkpKwfv163Lp1C69fv4bVakVCQsKIXqO+vp5KS0tx+/ZtzJs3DwsXLkRVVRUqKipgs9kgEomECojp6ekwm83tRqMxgIUUC9Zf0tbWZnU4HEetViu+fv0KmUyG169fw+l0QqVSISIiAg0NDejt7cXnz5+F6zu5XI6IiAjodDqEh4cjICAA48ePR2JiIgIDA4dts6amJnrx4gWWLFniN5KA+PDhw4gDaKQ+fvxIp06dwsKFCxEWFoZ79+5hxYoVbCjKJpj+XK2trUcfP36Mvr4+dHV1we12o6enBwDgdrvx7NkzSKVSqNVqREZGorm5GcnJyYiPj4fJZALP8zAYDBf1en36iBtUIhlRoAKATqcLDQgICPlff+6xY8f6tbS0VL5//z7G5XKxQGU965/lxYsX9OrVK7S0tKCkpEQo1u1yudDV1QWPxwORSASTyYS2tjbExsYiJycHSqUSQUFBkMvli9xu9wU2lGMYhmEYhmEYhmEYhmEYhmEYhmEYhmEYhmEYhmEYhmEYhmEYhmEYhmEYhmEYhmEY5o/1N671XydmOwYwAAAAAElFTkSuQmCC;" parent="1" vertex="1">
          <mxGeometry x="101.23" y="99" width="101.2" height="90" as="geometry" />
        </mxCell>
        <mxCell id="bxbD1uKVEHf06to05rYI-13" value="" style="shape=image;verticalLabelPosition=bottom;labelBackgroundColor=default;verticalAlign=top;aspect=fixed;imageAspect=0;image=data:image/png,iVBORw0KGgoAAAANSUhEUgAAA8IAAAA1CAYAAACKlFKRAAASqUlEQVR4nO3de1SV9Z7H8fdmA8qBjYZyU7BISiyUwRKpkN3N6xIt89jpuM40laU5NbNm+UdnVs2qptay1e2UlUVrXN7maJlmXjLNS0cQwmzCKyqDSQ15QMVUQEQue/7YbkTdd/azwfy81mKxfZ7f7/l+f8/2ny+/5/n9TDabzYaXGhsbiYiI8LZ5u5aWFgBCQ0N97utvTICamhri4+ODFlPjNC4maJxGxdQ4jYsJGqdRMTVO42KCxmlUTI3TuJigcRoVU+M0LiZonEbFbGtrw2azYTabXbYJ8fmqIiIiIiIiIlcxFcIiIiIiIiJyTVEhLCIiIiIiIr8Zra2teHoDWIWwiIiIiIiI/GaYTCZMJpPbNr6/JS0iIiIiIiLSTYWEeJ7vNb/00ksv+XLRtrY2t6tvueKYmvZUmQcyJsD58+cJDw8PWkyN07iYoHEaFVPjNC4maJxGxdQ4jYsJGqdRMTVO42KCxmlUTI3TuJigcRoR05sxhtbU1AAQGRnJmjVrWLZsmd8Xc9evM339/ZLAu78GBCKmxmlcTNA4jYqpcRoXEzROo2JqnMbFBI3TqJgap3ExQeM0KqbGaVxM0DiNiulpnJGRkVx33XWYHPsI19fXM2TIEAYOHEhjY6NPwURERERERES6s7q6OiIiIhg2bNjFd4SjoqIA6N27N5s3b+6y5ERERERERESMkJKSQlhY2JWrRvfr168r8hEREREREREJCm2fJCIiIiIiItcUFcIiIiIiIiJyTVEhLCIiIiIiIteUUM9NREREREREpLNOnz5NRUUFP/74IydPnqStrY3o6GhuuOEGBg0aRN++fYOaz7lz56isrKS8vJyamhrOnz9PZGQkSUlJ3HrrrSQmJgY1H5sNfqmHslr777Mt0MMM8b+DtBi46brAxVIhLCIiIiIiYpCamhqefPJJAIqLi6mtrXXaLioqimHDhrFw4UJSUlIMy+fs2bMUFRXx+OOPA1BVVeW0XWhoKGlpaSxdupQhQ4YYlg/A7uPwh3X2zwdPum53dzK8eMfFz52hQlhERERERCTA1q9fz3PPPUd0dDSNjY0ALFmyBIC0tDRiY2MJCQnh5MmTVFRU8Morr7Bz504yMjK45ZZbWLZsWUAL4vLycqZPnw7AkSNHSE1N5emnnwYgPT2dfv360aNHD+rr66msrOSNN96goKCAUaNGkZKSwrx588jMzAxYPgDfV8P9K+wzvrfF24/993j77wEWiAqDc61wtB72noDnt8MTG+HnOrAmwfwxcH20f7FNNpvN5vhHSkoKeXl5zJ07t7NjEhERERERuSbt2LGD6dOnY7FYmDNnDgBWq9Wrvrt37+bVV1+loKCA1NRUCgoKMJvNncrn008/ZenSpdTU1AD2Ij0mJsarvkeOHGHMmDEA9OzZk5UrV3LTTTd1Kp+9x+HRDfDjaRgcA59MsB/3pqg90QjjPrd/viEa/jQYJqZ6H9tR82qxLBERERERkQB59tlnyc7Oxmw2s2XLFqxWq9dFMEBGRgYvvPACaWlphIaGMn36dFpbW/3OJz8/n1mzZtHa2srnn39OSUmJ10Uw2AvH8vJyli9fTm1tLY8++ii7du3yO59vj9qL4NNNsP0P8O0f7QWwtzO7fSNg5zRYmQe/noPpX8OSMt/zUCEsIiIiIiISAM8//zzvv/8+hYWF7Nq1i4iICL+uk5GRwbZt25g3bx4LFy5kwoQJfl3ns88+Y+bMmYwfP55169bRr18/v64DkJiYyIIFC6itrSUvL4+jR4/6fI2KUzDxC2izwTcPQ3on1gZLssB/jYbcJPjHr+DLI771v6QQ7vCUtIiIiIiIiHipqKiITZs2UVRURE5OTkCuaTabWbFiBRs2bOChhx7yqe/hw4eZOnUq48aNa383uTPi4+PJyspizZo1NDQ0MHLkSJ9mqhtbIPcTMJtgxUT7O8CdEWKCG3rB8jz7+8ITPof/q/O+f6jjxe3Q0MCsm7V27VrWrVvnsV1+fn5A4l0LHPe0u9+z7p5nd89PRERERK5OVVVV5OTkMHz4cO68886AXTctLY0zZ86wY8cO7rvvPkpLS71asMpmszFixAj69+/Pxx9/HLB8evfuTV1dHdu2bWPo0KFMnDiRL7/80qu+LxVDdQOsmgSpvQOWEm022Px76J8PI/4KR2d60aetjZCIiIj2KXuTydTpRLwpggFmzJjBjBkzOh0vWNauXdtl+Xp7T7tad8+zu+cnIiIiIlend955h5iYmIAWnQ5ZWVlkZWWRlJREbm6uV7Owo0aNAqCkpISkpKSA5pOcnMypU6coKCjg8OHDVFZWeuzzv7/ChiP294En+bCwlTdCQ+yrSH/7xwvvHf/iZT/Hh7CwsIAm5GnW7WoqgqFriyjNYAaG7qOIiIiIBFpFRQWrVq1i69atZGRkGBKjurqab775hvT0dIqKisjNzXXZtqmpCbAvchXoIthh5MiRABw/fpyxY8dy8OBBt+0/2AWR4TAi0ZB0uLGX/XfqdTBmBdT/C7ib4w0JCem6xbIcRcnVVhCLiIiIiIg4TJ48mVOnThkaIyEhgYSEBOLj45k8ebLbtjt27GDbtm2sX7/e0JwAli9fzqFDh6itrXXZ5u8NsOYw/OVuY3P5pQ7WPwjJFig95rm9Vo0WERERERHxg+Mx5dzcXMNmgx0OHDjAsmXLqK2tpaqqymW7xYsXk5OTQ2xsrKH5NDQ0tH8uLi522e7PBVB52tBUAOh/YfGtjDj4pw2e2wdmhSwDuJopdvd4q699vGl/+eJfHft4mtV2FvfyBZsu7+tNH3/GcTUIxHd++X119l26O+bN9yEiIiIiAvaVmffu3cvq1asNj5WamsqBAwcA+wrVDz/88BVtWltbmT9/PgsWLDA8n8jISLKzs5kyZQovv/wyeXl5TtuV/N3+yPKwOMNTai+GD/3quW23nBF297i0s3OeFrJyds5Te8d5T+8G+xrXcT1XObvrczl/xt1d+TMOV/fPVXtn99Gf70NEREREBOC7774jOjo6KLHCwsIYPHgwVquVxYsXO23jz96+nREZGQlAeXm523Y5/SHMHIyMYOZQON8KJxrdt+uyGWFnM3Ydj7s7N2PGjEvOOYoZZ7N3zvq4i+HqvLN8/cnVXc6e+nhzDX+v1ZX8uY+u+vhbuAbi+xARERGRa8v27dsBGDBgQFDihYWFkZCQQF2d8w1zHQVpenp6UPIBuPfee1mxYgWtra2YzZdWu40tUP4r/Ed20NJp9+Mp6Bvh+rxhM8KOmTlXPwATJkxw2d9Z4eGsSFm7dq3L9u6Ou4ufn5/v06rX3ubqKTdfCrrOjLs76ex9dHcPfRXIa4mIiIjIb19zczNxcXFXFIBGCg8P59gx56tBOY4nJCQELR+HxsYrp2BPNQU9DRLsk9Qc8zAj3KWPRl/+qKqrWeKOLi9e8/Ly/C5YArElkrvY/pzzdiydGXd35Mu98vT/xJ/78lu6lyIiIiISHFFRUYSHhwc1Zl1dHc3NzU7POY4HM6fw8HDMZrPTnJovbHkcHry/E7THavaw3bJhj0Z7O6Pq7LHTQLyX6e4a+fn5l8S//NzVTO+0ioiIiIgEz5EjR4Ia76effiIqKsrpOcfxM2fOEBcXhNWpsBfmcXFxRERc+hxySxtEXajH684HJRUAzlyIFRXmvl2XvSPc8d3bQLyD6WsB2LEYdnWdq6EoDmThe/kK2Q5Xw30QEREREQm2cePGMXfuXOrq6rBYLEGLm5ycfMWxkydPkpSUBEBlZSWpqalByWXVqlUA9OzZ85LjoSEQHQ539oNVFfDEkKCkQ+VpiOkJSR6+jm65fZKvhZend0e9eUfXVVHcnYtAf8ftSiAeFRcRERERuRbU1NS0f96/fz/Z2cavCFVbW0tpaSnvvvvuFediYmJITU0lJyeH119/nfvvv9/wfByGDh3q9HjohRdxv68OWiq88b399+A+7tt1y0LYF968V+wNIx7PNlKgxt1Rdy76RURERES6k/j4eDIzM5k0aRJPPfUUe/bsMTxmcXExN998s8vzMTExgH1bp2Coqqpiz549FBYWumzzlhX+7W9w7CzE/S4oaZGV6LlNSEtLCy0tLbS1tRmfkZc8FaHu9or15lqe9t/1hb/7+HraGzfYj4p3NV/ulbNtsLy9loiIiIhIoMTHxwP2gtDVlkaBtHXrVuLi4hg5cqTT8xUVFSxYsACLxUJZWZnh+TzwwAM0NbleGrrpwoJVISZ44AvD02HXMftPvofJcJvNdnHV6GAXwh2LWUdh481jvd7sP+zpGo5HgDtTSHnzWLWztu7i+FPA+TLu7qiz9zEQ91BERERExB+nT59m0aJFpKenM3r0aENjlZaWsnTpUubPn++yTWpqKqmpqdhsNsaMGWNoPsePH6e+vp6RI0e63Le4hxmy+9k/f1dt/HZKfz0AGbEwINp9O5vNRmhoqP3p6EAXwv4WJO5WdO7Yxtv2EyZMuOLdV29iXB7H4fLCzJdcneXgzd647vq7iu1s3MHi6x8S/LmP7vp05dhFRERE5NrRq1cvwF5YlZSU8PPPPzNgwICAx2lsbMRqtXLzzTe7fTQa4ODBg2zevJnBgwdTUlJi2LvLb731FlVVVSxevNhtu/rzsPEhiPkAcj+BPY8akg4FVbCkDIoe8dzWZDJdnBEOCQn+lsL5+flOiz5f9991V2x23G/38iLWXT9nhZe3+XhzztV5Xx6J9mfc3VWg9lx2jF1EREREJFgKCwtJTExk+PDhNDQ0BPz699xzDw0NDcyZM8dj27S0NNLS0sjMzOSOO+7g22+/DXg+hYWFfPHFF2zfvp2srCy3baPC4cBJe4G69wSUHA14Omz9GayfwvXRMLC35/YmkwmTzWazOQ6kpKSQl5fH3LlzA5+dAMYsciVX0n0WERERkWCpqqoC4PrrrycrK4vVq1cHZB/f1tZWnnjiCRYtWsS8efN4+umnve4HcNttt1FRUcG6deu4++67O50PwNtvv83s2bMZMWIEJSUlPvW9bQn8cAw+uA9m/UNA0mHDEXhgNWTGwaYpF/cudsVR8wZ/GlikkwK52JmIiIiISGclJSXR0NDA119/zb59+5g6dSobN27s1DXLysp46qmnWLRoEe+9957XRTCA2Wymrq6OLVu2cMsttzBlyhTKy8s7lQ9AQUEBs2fPZubMmT4XwQD/8yd49Fb45y1Q/Eun06GsFqasgawEWPOA5yK4IxXCctVxt9iZs0XYRERERESMNmjQIFJSUli+fDlNTU3MmjWLnTt3+nWtQ4cO8cwzz7Bp0yZWr17NM8884/M1evfuTXh4OCtXrmT8+PGMGTOGu+66i+bmZp+vVVNTw6BBg7BarWRnZ/Phhx/6fA2HhWPh9gT417/ZZ4hPNPp+jXMt9kehMxZBsgU2ToFYH7dmuur3EZZrj7eLnYmIiIiIBNONN95IbGwsH330EdOmTeOxxx6jV69evPbaawDcfvvtREREOO1rs9nYv38/kyZN4syZMyQnJ1NcXExSUpLf+VgsFiwWCx988AHjx48H7AWy1WplyZIlAPTp08dl/8rKSh588EHOnj2LxWJh9+7dDB061O98HHZOg9Jj8O8FMOBjGBwDqybZz7lb8fn4WXjkS9j+C9zaBzb9Hu5O9i8HFcJyVepYDDs7JyIiIiLSFSwWCxkZGezbt4/y8nLGjRtHbm4uAMnJyQwfPpy77roLsC9Y/P3337fPHLe0tJCYmMiKFSvIzMwMaE6FhYXU1NQwduxYvvrqK/r27UtcXBzTpk0jMTERgPDwcMrKyigtLQWgubmZqKgo3nzzTaxWK44dhwJhcAy8eCe8XAwFv0DaAggLgUfSLp4H+17EX/984XMLnG22F8Ebp0Bf539T8IoWyxIRERERETHQ8ePHKSoqYs6cOVRUVHDq1Kn27WuHDBnSXvS++uqrJCf7OcXpg4aGBn744QdefPFFDh48yIkTJ9ofmR44cGD7rO+cOXMYNGiQ4fkAHKiFPxfCvhNwtB7OtdoLYwDrhUnx/7T//YA7+vkfx1HzqhAWEREREREJMsfKzmazuYszsWttbcVms2E2mzGZTF2dDm02+4/JBOYApuOoefVotIiIiIiISJB1lwLYobvlE2Ky//ijw1zvJToW+Fo1WkRERERERH4zXBXCHWlGWERERERERH4zTCaTx8e7L5kRjoyMNDQhERERERERESO5K4Kjo+37M4U2Ntp3MHYshd2jRw8aGhqMz05EREREREQkSBwFcltbG6GODZ2bm5uxWCykp6dTXV1NdXV1V+YoIiIiIiIiEjCxsbGMHj2apqami+8Ih4WFUV9fz6FDh5g0aRJ9+vTpyhxFREREREREAubYsWMUFBQwYsQI/h/26isiV5q0YgAAAABJRU5ErkJggg==;" parent="1" vertex="1">
          <mxGeometry x="82" y="40" width="663" height="36.53" as="geometry" />
        </mxCell>
        <mxCell id="bxbD1uKVEHf06to05rYI-14" value="&amp;nbsp; &amp;nbsp; &amp;nbsp; &amp;nbsp; &amp;nbsp; &amp;nbsp; &amp;nbsp; &amp;nbsp; &amp;nbsp; &amp;nbsp; &amp;nbsp; &amp;nbsp; &amp;nbsp; &amp;nbsp; &amp;nbsp; &amp;nbsp; &amp;nbsp; &amp;nbsp; &amp;nbsp; &amp;nbsp; &amp;nbsp; Placeholder" style="rounded=1;whiteSpace=wrap;html=1;fontFamily=Happy Monkey;fontSource=https%3A%2F%2Ffonts.googleapis.com%2Fcss%3Ffamily%3DHappy%2BMonkey;fontSize=17;fontColor=#E8E8E8;fillColor=#395B64;gradientColor=#808C89;fontStyle=2;labelPosition=center;verticalLabelPosition=middle;align=center;verticalAlign=middle;textDirection=rtl;shadow=1;strokeColor=#162326;arcSize=40;" parent="1" vertex="1">
          <mxGeometry x="270.5" y="189" width="281" height="30" as="geometry" />
        </mxCell>
        <mxCell id="bxbD1uKVEHf06to05rYI-15" value="&amp;nbsp; &amp;nbsp; &amp;nbsp; &amp;nbsp; &amp;nbsp; &amp;nbsp; &amp;nbsp; &amp;nbsp; &amp;nbsp; &amp;nbsp; &amp;nbsp; &amp;nbsp; &amp;nbsp; &amp;nbsp; &amp;nbsp; &amp;nbsp; &amp;nbsp; &amp;nbsp; &amp;nbsp; &amp;nbsp; &amp;nbsp; &amp;nbsp; &amp;nbsp; &amp;nbsp; &amp;nbsp; &amp;nbsp; &amp;nbsp;********" style="rounded=1;whiteSpace=wrap;html=1;fontFamily=Happy Monkey;fontSource=https%3A%2F%2Ffonts.googleapis.com%2Fcss%3Ffamily%3DHappy%2BMonkey;fontSize=17;fontColor=#E8E8E8;fillColor=#395B64;gradientColor=#808C89;fontStyle=2;labelPosition=center;verticalLabelPosition=middle;align=center;verticalAlign=middle;textDirection=rtl;shadow=1;strokeColor=#162326;arcSize=40;" parent="1" vertex="1">
          <mxGeometry x="271" y="259" width="281" height="31" as="geometry" />
        </mxCell>
      </root>
    </mxGraphModel>
  </diagram>
</mxfile>
